<?xml version="1.0" encoding="UTF-8" standalone="no"?>
<!-- Created with Inkscape (http://www.inkscape.org/) -->

<svg
   width="200mm"
   height="80mm"
   viewBox="0 0 200 80"
   version="1.1"
   id="svg5"
   xml:space="preserve"
   inkscape:version="1.2.2 (b0a8486541, 2022-12-01)"
   sodipodi:docname="logo_2.svg"
   xmlns:inkscape="http://www.inkscape.org/namespaces/inkscape"
   xmlns:sodipodi="http://sodipodi.sourceforge.net/DTD/sodipodi-0.dtd"
   xmlns="http://www.w3.org/2000/svg"
   xmlns:svg="http://www.w3.org/2000/svg"><sodipodi:namedview
     id="namedview7"
     pagecolor="#ffffff"
     bordercolor="#000000"
     borderopacity="0.25"
     inkscape:showpageshadow="2"
     inkscape:pageopacity="0.0"
     inkscape:pagecheckerboard="0"
     inkscape:deskcolor="#d1d1d1"
     inkscape:document-units="mm"
     showgrid="false"
     inkscape:zoom="1.1207889"
     inkscape:cx="452.35994"
     inkscape:cy="219.48826"
     inkscape:window-width="1920"
     inkscape:window-height="1008"
     inkscape:window-x="0"
     inkscape:window-y="0"
     inkscape:window-maximized="1"
     inkscape:current-layer="layer1" /><defs
     id="defs2"><rect
       x="380.85931"
       y="301.58878"
       width="197.14342"
       height="87.046722"
       id="rect623" /><rect
       x="165.24496"
       y="261.68335"
       width="141.53922"
       height="44.961521"
       id="rect119" /><rect
       x="94.237526"
       y="265.39273"
       width="703.40417"
       height="462.04083"
       id="rect113" /></defs><g
     inkscape:label="Слой 1"
     inkscape:groupmode="layer"
     id="layer1"><text
       xml:space="preserve"
       transform="scale(0.26458333)"
       id="text111"
       style="font-family:roboto;-inkscape-font-specification:roboto;white-space:pre;shape-inside:url(#rect113);fill:#000000" /><path
       style="fill:#ff0000;fill-opacity:0.00202547;stroke-width:0.353553"
       d="m 332.6874,502.58003 c -6.29792,-1.32246 -9.21521,-2.95287 -10.78327,-6.02651 -0.77675,-1.52255 -1.40059,-4.96519 -1.40728,-7.76596 -0.0104,-4.36853 -1.00594,-5.76369 -6.36466,-8.91969 -3.17011,-1.86702 -5.158,-3.57252 -6.48795,-5.56628 -0.90537,-1.35726 -0.82281,-6.8118 0.12322,-8.14036 1.64107,-2.30467 7.04407,-4.92772 12.37514,-6.00786 l 3.0052,-0.6089 0.23903,-1.66408 c 0.38141,-2.65538 1.29567,-3.78737 4.35228,-5.38884 1.56352,-0.81918 2.38316,-0.96074 7.24784,-1.25177 9.06949,-0.54257 8.96458,-0.52267 11.41408,-2.16496 1.211,-0.81192 2.75883,-2.25241 3.43965,-3.20109 2.82483,-3.93624 3.45135,-4.67167 5.1812,-6.0818 0.99703,-0.81276 1.99519,-1.53855 2.21811,-1.61285 0.22292,-0.0743 -0.43996,-1.0082 -1.47307,-2.07531 -2.38712,-2.46566 -6.40174,-7.77125 -10.1627,-13.43069 -3.48373,-5.24227 -4.01699,-5.86988 -5.73681,-6.75186 -1.65252,-0.84746 -1.85138,-1.54954 -2.56305,-9.0487 -0.67114,-7.07215 -1.05672,-8.91787 -2.21829,-10.61854 -5.16679,-7.56483 -3.98686,-15.68932 3.57277,-24.60056 1.21343,-1.43037 1.98985,-2.67678 1.98985,-3.19434 0,-0.46681 0.33327,-2.73876 0.74059,-5.04879 0.97234,-5.5144 0.79536,-8.88795 -0.60085,-11.45324 -1.3342,-2.45137 -2.44777,-3.31646 -7.12242,-5.53317 -2.18761,-1.03735 -5.76734,-2.73897 -7.95495,-3.78136 -2.29731,-1.09467 -5.54562,-3.05055 -7.68978,-4.63019 -3.49543,-2.57516 -7.52646,-5.10515 -8.93854,-5.61011 -0.46694,-0.16698 -0.72439,0.0246 -0.9945,0.74022 -1.42221,3.76777 -3.77358,6.39561 -7.14635,7.98664 -4.1593,1.96206 -13.04819,4.023 -15.43108,3.57779 -3.21041,-0.59982 -5.67497,-2.86781 -6.38526,-5.876 -0.24603,-1.04197 -1.15914,-3.31938 -2.02914,-5.06092 -1.12642,-2.25486 -1.6352,-3.75523 -1.76726,-5.21166 l -0.18545,-2.04522 1.72818,-1.68264 c 2.48932,-2.4237 4.04367,-4.43038 6.27063,-8.09548 1.85152,-3.0472 1.94275,-3.30463 1.60482,-4.52852 -0.19707,-0.71371 -0.30848,-2.9592 -0.24758,-4.98999 l 0.11073,-3.69235 -5.56847,7.5e-4 -5.56846,7.5e-4 v 55.86143 55.86144 h -7.42462 -7.42462 v -59.55773 -59.55772 l 1.14904,-0.17725 c 0.63198,-0.0975 5.36518,-0.27196 10.51822,-0.38773 16.5508,-0.37184 24.96447,-0.84856 30.05204,-1.70278 l 4.77297,-0.80139 0.10542,-1.41927 0.10543,-1.41927 -4.17129,-0.4045 c -2.29421,-0.22247 -5.12589,-0.65557 -6.29261,-0.96243 -5.25545,-1.38226 -10.08801,-4.69671 -11.77607,-8.07672 -2.42943,-4.86446 -1.54866,-12.86226 1.91684,-17.40576 1.97098,-2.58409 7.52593,-5.88545 12.21791,-7.26123 2.14213,-0.62811 3.81816,-0.7896 9.67328,-0.93204 8.31206,-0.20221 10.70708,0.0905 16.46248,2.01201 11.66051,3.893 22.85763,11.80087 24.69609,17.44139 0.55766,1.71094 0.0368,2.59319 -2.34473,3.97166 -2.60572,1.50822 -7.46171,5.39006 -7.70615,6.16023 -0.24672,0.77735 0.76214,2.94288 2.42604,5.20754 l 1.10336,1.50172 7.60139,0.0128 c 4.21412,0.007 9.01934,-0.18369 10.78338,-0.42815 1.75009,-0.24252 5.56847,-0.43557 8.48528,-0.42901 4.49686,0.0101 5.73341,0.13782 8.13173,0.83976 l 2.82843,0.82782 11.66726,-0.39833 c 6.417,-0.21909 14.00655,-0.49766 16.86567,-0.61907 l 5.19841,-0.22074 1.34233,-1.78614 c 0.91404,-1.21626 2.07557,-2.18773 3.64043,-3.04477 2.23107,-1.2219 2.40636,-1.25808 6.0104,-1.24028 6.31509,0.0312 14.17975,0.70667 15.90991,1.36647 2.17376,0.82896 4.10726,1.22444 6.07578,1.24274 2.07306,0.0193 3.16921,0.42881 4.24075,1.58442 l 0.83985,0.90574 8.82911,-0.33603 c 4.85601,-0.18482 11.97131,-0.44284 15.81179,-0.57338 l 6.98268,-0.23734 v 63.15238 63.15238 h -7.6014 -7.6014 v -58.71227 -58.71226 l -8.22012,0.22657 -8.22011,0.22657 -1.80707,1.8809 c -0.99388,1.03449 -2.16839,2.6273 -2.61002,3.53958 -0.78146,1.61428 -0.78987,1.74542 -0.31426,4.89762 0.30265,2.00581 0.4741,5.86369 0.45033,10.13321 -0.0355,6.3837 -0.10797,7.1253 -0.97814,10.01347 -1.06481,3.53422 -1.77916,5.05468 -3.97975,8.47072 -1.5261,2.369 -1.54447,2.43465 -1.54447,5.52079 0,3.64833 -0.3435,4.29126 -3.09181,5.78708 -2.35538,1.28197 -5.68406,2.01622 -9.16884,2.02252 -2.45893,0.004 -3.90621,-0.28631 -9.6744,-1.94355 -5.72116,-1.64373 -7.86911,-2.37721 -12.62342,-4.31062 -0.32347,-0.13154 -0.38236,0.13614 -0.22158,1.00719 0.41639,2.25582 1.46746,4.03202 4.88635,8.25741 3.45478,4.26976 6.73588,9.19792 7.80327,11.72037 0.69203,1.63545 3.95686,14.89785 5.4266,22.04398 1.2596,6.12441 3.19346,18.27457 3.26381,20.5061 0.0276,0.87504 -0.0626,2.22738 -0.20044,3.0052 -0.1836,1.03615 0.10496,3.11549 1.07942,7.77818 1.24904,5.97652 1.33166,6.76216 1.35706,12.90469 l 0.027,6.54074 -1.53948,3.88909 c -0.84671,2.139 -1.99067,5.30234 -2.54212,7.02964 -1.59406,4.99312 -2.38941,5.56677 -12.52494,9.03369 -12.44832,4.25801 -18.64282,5.68469 -32.36061,7.45306 -9.5825,1.2353 -11.07812,1.60442 -15.28485,3.77229 -5.06556,2.61045 -4.73819,2.04807 -4.41241,7.58011 0.17226,2.92528 0.62178,6.17661 1.17848,8.52379 0.57886,2.44069 0.81432,4.18458 0.65991,4.88762 -0.31344,1.42706 -2.04646,3.37488 -3.79752,4.26821 -1.1673,0.59551 -1.35394,0.8365 -1.14753,1.48177 0.13557,0.42383 0.32798,1.75173 0.42759,2.9509 0.17723,2.13375 0.15869,2.19188 -0.86853,2.72308 -0.5773,0.29853 -2.6485,0.86861 -4.60266,1.26685 -5.40031,1.10051 -13.54067,0.96311 -19.71175,-0.33272 z m 16.41463,-1.88107 c 2.20641,-0.47681 3.81715,-1.0122 4.02192,-1.33683 0.24482,-0.38811 0.0536,-1.13626 -0.67515,-2.64121 l -1.01673,-2.09973 -5.48008,0.12089 c -8.1239,0.17921 -12.82475,-1.09253 -15.10915,-4.08754 -0.48509,-0.63599 -1.70318,-3.67984 -2.70687,-6.7641 -1.68204,-5.16882 -1.97179,-5.77734 -3.70184,-7.77436 -2.10055,-2.42469 -5.57114,-5.15874 -8.61056,-6.78318 -2.31814,-1.23895 -2.62629,-1.58838 -2.03208,-2.30436 0.68018,-0.81956 3.43417,-0.63142 5.61462,0.38357 2.16834,1.00936 5.79181,3.5178 7.07369,4.89694 1.11948,1.20443 1.37545,1.16532 1.98934,-0.30392 0.67056,-1.60487 0.64847,-3.13848 -0.0653,-4.53672 -0.9075,-1.77761 -3.78612,-5.19514 -4.37211,-5.1906 -2.27221,0.0176 -8.79789,2.39141 -10.4407,3.79794 -1.98144,1.69648 -2.47787,4.10762 -1.38458,6.72488 0.81207,1.94402 2.08187,3.10539 5.78906,5.2947 3.87236,2.28686 5.73732,3.86817 6.52857,5.53561 0.32957,0.69451 0.72586,3.07252 0.95093,5.70628 0.42249,4.94383 0.63844,5.76244 1.98634,7.52963 1.6329,2.14083 3.41706,2.38048 8.5912,1.15397 0.87504,-0.20742 2.0967,-0.38103 2.71478,-0.38578 2.07255,-0.0159 2.84312,1.85783 0.95853,2.33084 -2.11716,0.53137 0.0287,1.48571 3.39776,1.51111 1.26395,0.01 3.95426,-0.34058 5.97846,-0.77803 z m 7.81154,-9.6954 c 0.83691,-1.06396 0.82582,-1.57081 -0.11811,-5.39798 -0.31174,-1.26395 -0.72654,-4.52548 -0.92177,-7.24784 -0.2616,-3.64787 -0.72825,-6.48087 -1.77419,-10.77109 -0.9328,-3.82614 -1.29973,-5.94083 -1.07058,-6.16997 0.41197,-0.41198 2.55656,-0.44606 4.07232,-0.0647 1.04413,0.26269 1.16679,0.15005 4.56353,-4.19038 2.18413,-2.79093 4.28169,-5.05502 5.60434,-6.04928 3.8851,-2.92047 9.78077,-5.2832 16.06973,-6.44004 3.60038,-0.66228 3.87935,-0.91215 3.46777,-3.10609 -0.22239,-1.18542 -0.24076,-1.19577 -1.75559,-0.98813 -1.04631,0.14341 -2.74828,-0.0793 -5.3773,-0.70377 -5.6729,-1.34739 -9.88106,-1.77784 -12.86076,-1.31553 -5.89049,0.91395 -8.5369,2.55954 -11.41049,7.0953 -1.4363,2.26712 -2.6761,3.56905 -4.77768,5.01712 -3.15751,2.17566 -4.25935,2.45143 -11.73562,2.93729 -7.13784,0.46387 -8.31529,0.73433 -9.65852,2.21859 -1.66259,1.83714 -1.05489,4.1164 2.1614,8.10669 2.67524,3.31903 2.98917,6.32763 1.09926,10.53491 -1.12421,2.50269 -1.07222,5.05531 0.16202,7.95495 0.538,1.26396 1.21721,3.17314 1.50936,4.24264 1.0569,3.86918 3.5905,5.3636 9.2156,5.43574 l 3.45759,0.0443 0.10973,-0.95013 c 0.17545,-1.51909 -0.94074,-1.95078 -5.76659,-2.23021 -4.01806,-0.23266 -6.54073,-0.86245 -6.54073,-1.63291 0,-0.1723 0.33378,-0.64706 0.74174,-1.05502 0.58802,-0.58802 1.00933,-0.69739 2.03293,-0.52771 0.71016,0.11772 3.04128,0.36528 5.18028,0.55014 4.75017,0.41052 6.18718,0.65705 6.18718,1.06147 0,0.17057 0.54041,0.48847 1.20091,0.70645 0.78064,0.25764 1.34641,0.74761 1.61668,1.4001 0.4459,1.0765 1.9719,2.65636 2.83927,2.93949 0.72024,0.2351 1.56228,-0.24246 2.47629,-1.40443 z m 5.57587,-24.27225 c 3.91088,-1.96822 6.81096,-2.64905 16.79345,-3.94247 5.2312,-0.6778 10.93126,-1.54228 12.66679,-1.92107 6.05708,-1.32197 20.30885,-5.74182 24.59518,-7.6276 2.22266,-0.97786 2.59783,-1.52292 4.13432,-6.00647 0.66425,-1.93831 1.79604,-5.11518 2.5151,-7.05973 l 1.30737,-3.53553 -0.14992,-5.83363 c -0.11416,-4.44176 -0.37651,-6.97244 -1.09957,-10.6066 -0.52231,-2.62514 -1.09767,-5.12252 -1.27859,-5.54975 l -0.32893,-0.77678 -4.09663,1.37629 c -4.35918,1.46449 -9.30739,2.56037 -14.49714,3.21068 -4.48814,0.56239 -15.14972,0.477 -19.7922,-0.15852 -2.13526,-0.29231 -3.93851,-0.47524 -4.00722,-0.40653 -0.0687,0.0687 0.61738,1.88357 1.52465,4.03302 1.78437,4.22739 3.24262,6.64381 6.28556,10.41563 2.45988,3.0491 4.06342,6.18822 4.598,9.00116 l 0.41606,2.18932 h 4.66013 4.66014 l 0.43062,-2.55301 c 0.50137,-2.97247 0.27649,-6.85704 -0.52644,-9.09346 -0.49159,-1.36926 -0.49835,-1.63558 -0.0528,-2.08114 0.70905,-0.70905 3.25179,-0.65325 4.07237,0.0894 1.33985,1.21254 2.11223,6.84468 1.46495,10.68221 -0.34598,2.05122 -0.63895,2.71445 -1.72182,3.89794 l -1.30491,1.42615 -6.89429,0.20911 c -7.18631,0.21798 -10.9728,0.73621 -16.17922,2.21437 -6.35728,1.8049 -10.23653,4.46288 -14.29553,9.795 -1.18547,1.5573 -3.32542,4.17337 -4.75543,5.81349 -3.68872,4.23067 -3.46209,4.97168 0.85594,2.79855 z m 22.70698,-28.98287 c 0,-0.60098 -1.07586,-2.19457 -3.77293,-5.58854 -2.26025,-2.84429 -4.73007,-7.37536 -6.30354,-11.56431 l -0.97955,-2.60782 -2.33856,0.21433 c -8.69881,0.79723 -12.8269,0.97322 -17.84543,0.7608 -4.62237,-0.19564 -5.55839,-0.15457 -5.32847,0.23382 2.57673,4.35277 7.90893,11.56444 10.80421,14.61242 l 2.40144,2.52809 2.57742,-0.32329 c 1.41758,-0.17781 4.60592,-0.24789 7.08522,-0.15573 2.47929,0.0922 4.50509,0.0668 4.50177,-0.0564 -0.003,-0.1232 -0.4779,-1.0195 -1.05463,-1.99177 -1.64074,-2.76601 -1.38605,-3.35876 1.44313,-3.35876 1.98204,0 3.1177,1.31974 4.55151,5.28925 0.51206,1.41764 0.72913,1.6195 2.14884,1.99823 2.10659,0.56196 2.10957,0.56197 2.10957,0.01 z M 369.64007,415.6305 c 0.87505,-0.21327 1.94896,-0.46905 2.38649,-0.56841 0.70545,-0.16021 0.79549,-0.39858 0.79549,-2.10593 0,-2.07644 -1.22603,-8.97848 -1.67242,-9.41506 -0.14967,-0.14637 -1.78356,-0.74929 -3.63088,-1.3398 -5.61773,-1.79578 -8.53549,-4.03431 -8.00636,-6.14255 0.46585,-1.85607 3.9263,-1.57338 4.80484,0.39253 0.64827,1.45062 3.55278,2.91272 7.92652,3.99012 2.94299,0.72497 3.16428,0.84449 3.6308,1.96102 0.58514,1.40044 1.89725,8.80021 1.89725,10.69974 v 1.31897 l 3.13339,0.60288 c 7.64427,1.47079 17.02379,1.6324 23.91344,0.41202 7.38955,-1.30893 14.19319,-3.65746 16.36712,-5.64972 l 1.19014,-1.09068 -1.09568,-7.06502 c -1.35961,-8.76692 -3.44697,-19.1351 -5.49036,-27.27136 -0.85756,-3.41462 -1.62069,-6.26988 -1.69583,-6.34502 -0.0751,-0.0751 -1.79509,0.42237 -3.82212,1.10557 -5.24245,1.76694 -14.13988,3.9447 -20.14649,4.9311 -7.846,1.28847 -14.70005,1.72921 -23.13699,1.48781 -7.81133,-0.22351 -11.70405,-0.68596 -18.83319,-2.23739 l -4.33751,-0.94391 -0.89122,0.83726 c -1.26435,1.18779 -4.24941,5.9403 -5.13233,8.17117 -0.63596,1.60686 -0.72836,2.46172 -0.62423,5.77512 0.1112,3.53825 0.21513,4.04856 1.15209,5.65686 1.47787,2.53677 3.07767,4.39144 5.18449,6.01041 3.68499,2.8317 4.25551,3.41215 3.84272,3.90953 -0.64251,0.77418 -2.26511,0.92638 -3.89382,0.36524 -0.84793,-0.29213 -1.56322,-0.49842 -1.58955,-0.45842 -0.1708,0.25951 0.97009,10.12254 1.24387,10.75324 0.37743,0.8695 3.55396,1.98917 7.26167,2.55961 2.76078,0.42475 17.21096,0.19458 19.26866,-0.30693 z m 5.48008,-42.8021 c 9.88776,-0.47242 18.17336,-1.87264 28.28427,-4.77987 6.1172,-1.7589 9.36916,-2.92517 9.36916,-3.36012 0,-0.16756 -0.50272,-1.11337 -1.11716,-2.1018 -0.76706,-1.23393 -1.29337,-1.74287 -1.67938,-1.62393 -10.17909,3.13634 -21.73823,5.41122 -31.67491,6.23375 -7.26115,0.60106 -20.25428,0.24682 -26.80696,-0.73086 -2.88211,-0.43002 -5.33139,-0.69067 -5.44284,-0.57922 -0.11145,0.11145 -0.27833,0.99034 -0.37084,1.95309 l -0.16819,1.75045 1.49698,0.40309 c 3.10517,0.83614 7.74145,1.74016 11.66964,2.27544 7.00314,0.9543 7.69454,0.97785 16.44023,0.55998 z m -0.35355,-8.13735 c 7.14761,-0.37367 14.92162,-1.54775 22.27386,-3.36394 7.83868,-1.93634 10.78373,-2.92871 10.78124,-3.63284 -0.001,-0.33294 -1.27569,-2.19172 -2.83226,-4.13063 -3.2295,-4.02275 -4.20426,-6.19817 -4.49888,-10.0403 l -0.19979,-2.60544 -1.62515,-1.03251 c -0.89384,-0.56789 -2.02291,-1.11745 -2.50904,-1.22126 -4.96955,-1.06114 -9.53295,-2.39401 -11.82986,-3.45525 -2.45287,-1.1333 -3.29598,-1.8061 -7.05679,-5.63134 -2.34911,-2.38935 -6.14052,-5.74778 -8.42535,-7.46319 -2.28484,-1.7154 -4.15426,-3.3325 -4.15426,-3.59355 0,-0.6694 1.15371,-1.20663 2.59126,-1.20663 2.1128,0 9.59635,5.71414 14.57901,11.13194 2.59187,2.81822 3.57062,3.61901 5.62342,4.60094 3.60179,1.72288 10.73551,3.359 14.64567,3.359 0.78004,0 1.83409,0.18947 2.34235,0.42105 0.90293,0.41141 0.94927,0.68602 0.35763,2.11942 -0.55369,1.34148 5.87272,4.30399 15.20642,7.01 6.9891,2.02626 9.20434,2.26482 12.00616,1.29294 2.98441,-1.03521 3.15832,-1.27643 3.17094,-4.3982 0.0119,-2.94621 0.30874,-3.74751 3.36981,-9.09686 0.77891,-1.36118 1.83801,-3.74766 2.35356,-5.3033 0.8299,-2.50417 0.95612,-3.5338 1.10095,-8.98127 0.12733,-4.78942 0.0248,-7.03802 -0.46266,-10.14741 -0.60014,-3.82814 -0.59998,-4.06329 0.004,-5.64449 0.34657,-0.90747 1.29184,-2.46645 2.10062,-3.4644 2.62371,-3.23742 2.68219,-3.36953 2.67699,-6.04739 -0.008,-4.04023 -0.0321,-4.07558 -2.78982,-4.07558 -1.71167,0 -3.19687,-0.29235 -5.41476,-1.06584 -3.05364,-1.06495 -3.05853,-1.06542 -5.92566,-0.56787 -3.07505,0.53363 -4.04766,0.44771 -5.08365,-0.44909 -0.8422,-0.72904 -3.93099,-0.68864 -5.39924,0.0706 -1.10604,0.57195 -3.66632,3.18779 -3.66632,3.74586 0,0.17458 0.39619,1.16849 0.88042,2.20869 1.59145,3.41861 1.00888,4.99186 -2.02947,5.48065 -2.87706,0.46285 -1.22277,1.35381 4.2126,2.26882 4.39424,0.73973 6.20413,1.40317 7.02495,2.57505 0.87499,1.24923 0.64963,2.29631 -0.63095,2.93154 -0.8957,0.44431 -1.47541,1.24209 -2.62924,3.6182 -0.8141,1.67652 -2.23068,3.92327 -3.14797,4.99277 -1.58912,1.85283 -2.94875,4.24926 -2.96547,5.22683 -0.004,0.24963 0.54908,0.78241 1.22967,1.18397 2.51435,1.48351 0.82517,3.0722 -2.39666,2.25409 -2.34406,-0.59522 -3.24344,-1.57785 -5.22467,-5.70826 -1.25977,-2.62636 -2.121,-3.92806 -3.22293,-4.87126 -2.88057,-2.46567 -6.99671,-3.89071 -12.76682,-4.41997 l -3.25898,-0.29894 -1.59099,-1.89105 c -5.39025,-6.40688 -9.4971,-9.9251 -14.18366,-12.15074 -6.52448,-3.09846 -12.86936,-2.98414 -19.58784,0.35295 -3.50684,1.74185 -5.02042,1.96296 -6.00326,0.87694 -0.60688,-0.6706 -0.60837,-0.74197 -0.029,-1.38219 0.58023,-0.64114 0.57768,-0.68565 -0.0506,-0.88507 -0.36386,-0.11548 -4.71093,-0.17963 -9.66015,-0.14255 -10.16866,0.0762 -9.72982,0.17085 -14.33587,-3.09239 -3.29739,-2.33609 -4.17273,-4.0924 -2.37945,-4.7742 1.49172,-0.56715 2.74593,-0.0736 5.06009,1.9913 2.24844,2.00625 4.79262,3.53017 5.09007,3.04888 0.0956,-0.15466 -0.3132,-1.02985 -0.9084,-1.94486 -0.63866,-0.98181 -1.15646,-2.32246 -1.26338,-3.27105 -0.12689,-1.12573 -0.31905,-1.55447 -0.6413,-1.43081 -1.65249,0.63412 -4.89542,0.9143 -6.88113,0.59451 -2.19804,-0.35398 -5.49502,-1.92928 -6.12366,-2.92588 -1.21731,-1.92986 2.04207,-2.32385 5.25275,-0.63493 1.10899,0.58336 2.4379,1.06066 2.95314,1.06066 0.51524,0 2.8458,-0.88865 5.17902,-1.97476 2.33321,-1.08612 5.55031,-2.55074 7.1491,-3.25471 1.5988,-0.70397 2.98332,-1.4791 3.07673,-1.72252 0.27049,-0.70488 -2.45531,-4.4846 -4.48236,-6.21546 -5.29902,-4.52473 -14.24432,-9.16 -21.023,-10.8937 -6.36317,-1.62742 -11.51646,-1.62717 -17.88209,8.9e-4 -5.78642,1.47992 -9.87263,4.47465 -11.999,8.79393 -1.09287,2.21992 -1.15531,2.55736 -1.15531,6.24328 0,3.5452 0.0886,4.07696 0.9828,5.89783 2.45186,4.99278 7.2593,7.23863 16.40949,7.66587 2.9543,0.13794 5.49989,0.38033 5.65685,0.53865 0.29731,0.29987 0.23425,6.45911 -0.0819,8.00433 -0.163,0.79654 -0.002,0.94983 1.5974,1.51777 2.05963,0.73151 3.18713,2.05014 2.48077,2.90126 -0.65983,0.79504 -3.39874,0.68633 -4.49825,-0.17855 -0.63931,-0.50288 -1.43429,-0.7071 -2.75252,-0.7071 -2.19518,0 -2.8196,-0.53182 -2.47367,-2.10684 0.21044,-0.9581 0.14649,-1.07488 -0.58744,-1.07267 -1.42296,0.004 -6.60714,1.37182 -8.11335,2.14023 -3.92133,2.00051 -6.07804,5.44539 -6.07366,9.70133 0.002,2.09075 0.97007,6.8943 1.3892,6.8943 0.0716,0 0.44838,-0.3182 0.83729,-0.70711 0.38891,-0.38891 1.06508,-0.70494 1.5026,-0.70228 1.93161,0.0117 2.37781,0.40008 3.80045,3.30776 2.72697,5.57353 6.82974,9.42675 13.27013,12.46295 4.31318,2.03336 8.5666,4.58922 12.52788,7.52792 3.28285,2.4354 5.31032,3.52777 12.20923,6.57814 5.32321,2.35367 7.67586,3.77303 9.27417,5.59511 2.05669,2.34465 2.30951,3.18464 2.60951,8.66993 0.15278,2.79345 0.32568,5.1254 0.38424,5.18211 0.29713,0.28778 9.77848,1.68692 13.01115,1.92002 5.36449,0.38682 7.55328,0.38939 14.67247,0.0172 z m -83.08505,-23.68843 c 5.35276,-1.56974 6.41062,-1.98036 7.77602,-3.0184 1.65548,-1.25856 3.56059,-4.25918 4.01225,-6.31944 0.35435,-1.61639 0.64266,-1.26063 -3.62931,-4.47857 -2.69205,-2.02784 -5.95626,-5.86155 -7.3519,-8.6346 -0.58721,-1.16673 -1.11867,-2.17795 -1.18104,-2.24716 -0.0624,-0.0692 -0.79923,0.13673 -1.63747,0.45763 -1.26216,0.4832 -1.82131,1.03838 -3.25356,3.23049 -0.95121,1.45587 -2.74107,3.73965 -3.97747,5.07508 -2.75032,2.9706 -2.83141,3.64655 -0.86723,7.22901 0.75942,1.38512 1.7288,3.69889 2.15417,5.14171 0.5133,1.74108 1.12428,2.9742 1.81672,3.66664 1.18857,1.18857 1.76973,1.17888 6.13882,-0.10239 z M 417.74726,314.2277 c 1.61765,-1.8424 4.7425,-8.88505 4.18697,-9.4364 -0.0798,-0.0792 -1.41783,-0.31905 -2.97346,-0.53306 -4.23862,-0.58311 -6.06917,-1.30417 -7.74131,-3.04932 l -1.45681,-1.52041 -9.01274,0.36175 c -4.95701,0.19896 -9.075,0.42186 -9.15109,0.49534 -0.14647,0.14146 1.44509,2.14706 3.71866,4.68606 1.31834,1.47226 1.47493,1.54201 4.19785,1.87007 6.47463,0.78006 11.09923,2.74291 14.42162,6.12107 1.20747,1.22773 2.29823,2.2528 2.42393,2.27792 0.1257,0.0251 0.74957,-0.54774 1.38638,-1.27302 z"
       id="path691"
       transform="scale(0.26458333)" /><path
       id="path693"
       style="fill:#ff0000;fill-opacity:0.00202547;stroke-width:0.0935442"
       d="m 81.949003,67.205717 c -0.230775,0.002 -0.481122,0.0067 -0.756026,0.01344 -1.549161,0.03769 -1.992762,0.08031 -2.559534,0.246496 -1.241414,0.364009 -2.711394,1.237629 -3.232877,1.92133 -0.916907,1.202128 -1.149733,3.318355 -0.506946,4.605404 0.446626,0.894288 1.725074,1.771103 3.115572,2.13682 0.308695,0.08119 1.058005,0.195905 1.665015,0.254765 l 1.103808,0.10697 -0.0279,0.375688 -0.02791,0.375171 -1.262972,0.21239 c -1.34608,0.226012 -3.5719,0.351722 -7.950936,0.450102 -1.363402,0.03063 -2.616082,0.07704 -2.783293,0.102836 l -0.303857,0.04703 v 15.757695 15.758216 h 1.964221 1.964738 V 94.79008 80.010103 l 1.473295,-5.16e-4 h 1.473295 l -0.02946,0.976684 c -0.01611,0.537313 0.01349,1.131498 0.06563,1.320333 0.08941,0.323821 0.0651,0.392144 -0.42478,1.198376 -0.589211,0.969719 -1.000187,1.500719 -1.658813,2.141989 l -0.457337,0.444934 0.04909,0.541052 c 0.03494,0.385347 0.16964,0.782646 0.467672,1.379244 0.230181,0.460777 0.471828,1.063254 0.536918,1.338936 0.187931,0.795911 0.839887,1.395725 1.689302,1.554427 0.630472,0.117795 2.98248,-0.427072 4.082955,-0.946195 0.892373,-0.42096 1.514037,-1.116683 1.890324,-2.113566 0.07147,-0.18935 0.140006,-0.240034 0.26355,-0.195854 0.373613,0.133604 1.439886,0.803326 2.364713,1.484664 0.567309,0.417947 1.426672,0.935106 2.034502,1.224731 0.578799,0.275799 1.525976,0.726508 2.104781,1.000973 1.236822,0.586499 1.531638,0.815407 1.884639,1.463993 0.369414,0.678733 0.416428,1.5713 0.159164,3.030306 -0.107768,0.611196 -0.196371,1.212326 -0.196371,1.335836 0,0.136938 -0.205012,0.466458 -0.526066,0.84491 -2.00014,2.35777 -2.312714,4.50769 -0.945679,6.50916 0.307332,0.44997 0.409473,0.93801 0.587045,2.80913 0.18829,1.98415 0.240771,2.16995 0.677994,2.39417 0.455035,0.23336 0.596523,0.39945 1.518254,1.78646 0.995081,1.4974 2.057133,2.90142 2.688725,3.55379 0.273344,0.28234 0.44862,0.5291 0.38964,0.5488 -0.05898,0.0197 -0.323247,0.21181 -0.587044,0.42685 -0.45769,0.3731 -0.623062,0.56773 -1.370459,1.6092 -0.180134,0.251 -0.589612,0.63216 -0.910022,0.84698 -0.648097,0.43453 -0.620347,0.42901 -3.019971,0.57257 -1.287107,0.077 -1.504037,0.11451 -1.917712,0.33125 -0.808722,0.42372 -1.050953,0.72318 -1.151868,1.42575 l -0.06304,0.44028 -0.7953,0.16123 c -1.410506,0.28579 -2.840025,0.97979 -3.274219,1.58957 -0.250302,0.35152 -0.272082,1.79477 -0.03256,2.15388 0.351877,0.52745 0.877938,0.97879 1.716691,1.47277 1.417816,0.83503 1.681335,1.20423 1.684135,2.36007 0.0018,0.74104 0.166555,1.6518 0.37207,2.05465 0.414883,0.81323 1.186737,1.24484 2.853056,1.59474 1.632752,0.34282 3.786882,0.37878 5.215702,0.0879 0.517038,-0.10537 1.064753,-0.25638 1.217497,-0.33538 0.271789,-0.14054 0.27685,-0.15581 0.22996,-0.72037 -0.02635,-0.31728 -0.0773,-0.66869 -0.113171,-0.78083 -0.05461,-0.17072 -0.0055,-0.23415 0.30334,-0.39171 0.463301,-0.23636 0.922177,-0.75207 1.005107,-1.12965 0.04085,-0.18601 -0.02151,-0.64717 -0.174667,-1.29294 -0.147287,-0.62102 -0.266545,-1.48118 -0.312125,-2.25516 -0.0862,-1.46369 -0.172364,-1.31494 1.167887,-2.00556 1.113025,-0.57358 1.508331,-0.67155 4.043675,-0.99839 3.6295,-0.46788 5.26865,-0.84538 8.56227,-1.97198 2.68169,-0.91729 2.89225,-1.06893 3.31401,-2.39003 0.1459,-0.45701 0.44829,-1.2939 0.67231,-1.85984 l 0.40773,-1.02887 -0.007,-1.73065 c -0.007,-1.62521 -0.0287,-1.83349 -0.35915,-3.41478 -0.25779,-1.23361 -0.33385,-1.78361 -0.28525,-2.05775 0.0364,-0.2058 0.0597,-0.56378 0.0527,-0.7953 -0.0186,-0.59042 -0.53025,-3.80509 -0.86352,-5.42551 -0.38887,-1.89075 -1.25247,-5.39949 -1.43557,-5.832203 -0.28241,-0.667392 -1.15092,-1.971401 -2.06499,-3.101102 -0.90459,-1.117962 -1.18226,-1.588028 -1.29243,-2.18488 -0.0426,-0.230466 -0.0272,-0.30145 0.0584,-0.26665 1.25791,0.511542 1.82613,0.705596 3.33985,1.140499 1.52611,0.438475 1.90893,0.515797 2.55953,0.514697 0.92201,-0.0017 1.80301,-0.19618 2.42621,-0.535368 0.72714,-0.395769 0.81804,-0.565892 0.81804,-1.531173 0,-0.816535 0.005,-0.8341 0.40876,-1.460892 0.58224,-0.903821 0.77092,-1.306117 1.05265,-2.241207 0.2302,-0.764156 0.24989,-0.960443 0.25889,-2.649451 0.006,-1.129638 -0.0387,-2.150275 -0.11885,-2.680973 -0.12588,-0.834013 -0.12418,-0.868423 0.0827,-1.295528 0.11685,-0.241375 0.42796,-0.663185 0.69092,-0.936894 l 0.478,-0.497644 2.17506,-0.05994 2.17455,-0.05994 v 15.534452 15.534457 h 2.01124 2.01125 V 92.860999 76.151941 l -1.84743,0.06253 c -1.01613,0.03454 -2.89891,0.103029 -4.18373,0.151929 l -2.33577,0.08888 -0.22221,-0.239779 c -0.28351,-0.305755 -0.5734,-0.413996 -1.12189,-0.419096 -0.52084,-0.0048 -1.03252,-0.109333 -1.60766,-0.328662 -0.45777,-0.174572 -2.53869,-0.353435 -4.20956,-0.361735 -0.95357,-0.0047 -0.99978,0.0049 -1.59008,0.328145 -0.41404,0.226758 -0.72141,0.483834 -0.96325,0.805636 l -0.35554,0.472322 -1.37511,0.0584 c -0.75647,0.03212 -2.76443,0.105844 -4.46226,0.163814 l -3.08715,0.10542 -0.748266,-0.218591 c -0.634555,-0.185727 -0.962019,-0.219509 -2.151807,-0.222209 -0.771733,-0.0017 -1.781786,0.049 -2.244824,0.113171 -0.466736,0.06468 -1.738076,0.115072 -2.853056,0.113172 l -2.011247,-0.0031 -0.291971,-0.397392 c -0.44024,-0.599185 -0.707102,-1.172019 -0.641822,-1.377693 0.06467,-0.203774 1.349206,-1.230826 2.038636,-1.629875 0.630071,-0.364721 0.76818,-0.598412 0.620633,-1.051099 -0.48642,-1.492375 -3.448809,-3.584688 -6.533968,-4.614705 -1.332423,-0.444848 -1.984367,-0.559771 -3.59978,-0.545703 z m -0.244946,0.595829 c 0.761841,-3.8e-5 1.523441,0.107684 2.36523,0.322978 1.793513,0.458702 4.160431,1.685355 5.562451,2.882511 0.536324,0.457957 1.257544,1.457851 1.185974,1.644344 -0.02472,0.0644 -0.390893,0.269529 -0.813903,0.455787 -0.423013,0.186253 -1.274547,0.57356 -1.891875,0.860929 -0.617326,0.287367 -1.233618,0.522449 -1.369942,0.522449 -0.136324,0 -0.487933,-0.126262 -0.781347,-0.280603 -0.849493,-0.44686 -1.712175,-0.342144 -1.390096,0.168465 0.166322,0.263678 1.039013,0.680453 1.620572,0.774113 0.525386,0.08461 1.383346,0.01016 1.820561,-0.157613 0.08526,-0.03272 0.135929,0.08094 0.169499,0.378788 0.02829,0.250981 0.165373,0.60581 0.334346,0.86558 0.157477,0.242097 0.265586,0.473261 0.240296,0.514181 -0.0787,0.127335 -0.751795,-0.27585 -1.346688,-0.80667 -0.612283,-0.546329 -0.944258,-0.67664 -1.338936,-0.526582 -0.474472,0.180387 -0.242494,0.644881 0.629935,1.262972 1.218678,0.863389 1.10261,0.838198 3.79305,0.818038 1.309475,-0.0098 2.459647,0.0072 2.555917,0.03772 0.166234,0.05276 0.166433,0.06498 0.01292,0.234611 -0.153265,0.169391 -0.153065,0.187924 0.0078,0.365353 0.260043,0.287337 0.660689,0.228831 1.588534,-0.232027 1.777586,-0.882934 3.456372,-0.912803 5.182629,-0.09302 1.239986,0.588861 2.326576,1.51965 3.752746,3.214791 l 0.42116,0.500228 0.86196,0.07906 c 1.52668,0.140027 2.61594,0.517068 3.37809,1.169437 0.29155,0.249555 0.51935,0.593919 0.85266,1.288811 0.5242,1.092825 0.76215,1.353017 1.38235,1.510502 0.85245,0.216452 1.29933,-0.20384 0.63407,-0.596346 -0.18007,-0.106246 -0.32657,-0.247626 -0.32557,-0.313676 0.004,-0.258649 0.36452,-0.892635 0.78497,-1.382862 0.2427,-0.282966 0.61763,-0.877276 0.83302,-1.320849 0.30529,-0.628679 0.45858,-0.840008 0.69557,-0.957565 0.33882,-0.168065 0.39841,-0.444621 0.16691,-0.775146 -0.21718,-0.31006 -0.69616,-0.485892 -1.8588,-0.681612 -1.43811,-0.242097 -1.87588,-0.478018 -1.11466,-0.60048 0.80389,-0.129326 0.95799,-0.54554 0.53692,-1.450041 -0.12812,-0.27522 -0.23306,-0.537754 -0.23306,-0.583944 0,-0.147656 0.67784,-0.839825 0.97048,-0.991154 0.38848,-0.200877 1.20551,-0.21151 1.42834,-0.0186 0.27411,0.237278 0.53154,0.259529 1.34514,0.118339 0.7586,-0.131643 0.75992,-0.131384 1.56786,0.150378 0.58682,0.204654 0.97959,0.282154 1.43247,0.282154 0.73014,0 0.73646,0.0095 0.73846,1.078487 10e-4,0.708511 -0.0143,0.743341 -0.70849,1.599902 -0.21399,0.264041 -0.46434,0.676639 -0.55604,0.91674 -0.15974,0.41836 -0.15996,0.480593 -0.001,1.493449 0.12942,0.822687 0.15617,1.417396 0.12247,2.684591 -0.0383,1.441298 -0.0714,1.713527 -0.29093,2.376082 -0.1364,0.411591 -0.41662,1.043387 -0.62271,1.403532 -0.80983,1.415337 -0.88893,1.627059 -0.89193,2.406571 -0.003,0.825962 -0.0491,0.88986 -0.83871,1.163753 -0.74132,0.257143 -1.32735,0.194011 -3.17655,-0.342097 -2.46954,-0.715966 -4.17002,-1.499734 -4.02353,-1.854668 0.15656,-0.379247 0.14454,-0.451837 -0.0946,-0.560689 -0.13448,-0.06127 -0.41321,-0.111621 -0.6196,-0.111621 -1.03456,0 -2.92224,-0.432473 -3.87522,-0.888318 -0.54313,-0.259802 -0.80206,-0.471843 -1.48776,-1.217497 -1.318351,-1.433448 -3.298639,-2.945556 -3.857651,-2.945556 -0.380346,0 -0.685229,0.142248 -0.685229,0.31936 0,0.06907 0.494627,0.496986 1.099158,0.950846 0.604522,0.453869 1.607275,1.34238 2.228804,1.974557 0.995038,1.012088 1.218078,1.189985 1.867068,1.489831 0.60772,0.280787 1.81518,0.633919 3.13004,0.914673 0.12862,0.02747 0.42755,0.172724 0.66405,0.322978 l 0.42994,0.272852 0.0527,0.689363 c 0.078,1.016557 0.33616,1.592339 1.19063,2.656686 0.41184,0.512997 0.74904,1.004866 0.74931,1.092956 6.5e-4,0.186301 -0.77856,0.448859 -2.85254,0.961182 -1.94528,0.480528 -4.00205,0.790998 -5.893183,0.889868 -1.883607,0.09843 -2.463108,0.09806 -3.88245,-0.0041 -0.855305,-0.06168 -3.363547,-0.432356 -3.442167,-0.508496 -0.01549,-0.01501 -0.06138,-0.631882 -0.101803,-1.370976 -0.07938,-1.451311 -0.146237,-1.673568 -0.690397,-2.293917 -0.422886,-0.482086 -1.045687,-0.857277 -2.454114,-1.480013 -1.825324,-0.807071 -2.361712,-1.096102 -3.230294,-1.740462 -1.048082,-0.777525 -2.173336,-1.454133 -3.314526,-1.992127 -1.704008,-0.803321 -2.789392,-1.822816 -3.510897,-3.297473 -0.376401,-0.769318 -0.494557,-0.871782 -1.005623,-0.874882 -0.11576,-7.04e-4 -0.294492,0.08262 -0.397392,0.185519 -0.102899,0.1029 -0.202742,0.187068 -0.221692,0.187068 -0.110894,0 -0.36689,-1.271001 -0.367419,-1.824178 -0.0012,-1.126045 0.569108,-2.037473 1.60662,-2.566768 0.398519,-0.203309 1.770147,-0.565274 2.146639,-0.566374 0.194186,-5.84e-4 0.211226,0.03072 0.155546,0.284221 -0.09153,0.416718 0.07393,0.557071 0.65474,0.557071 0.348782,0 0.558976,0.05401 0.728121,0.187069 0.290912,0.228831 1.015529,0.257906 1.190109,0.04754 0.186885,-0.225186 -0.111353,-0.574366 -0.656291,-0.767911 -0.423175,-0.150268 -0.465843,-0.190775 -0.422713,-0.401526 0.08365,-0.408839 0.100384,-2.03836 0.0217,-2.1177 -0.04153,-0.04189 -0.714892,-0.106127 -1.49655,-0.142627 -2.42097,-0.11304 -3.693133,-0.707306 -4.341854,-2.0283 -0.236586,-0.481772 -0.259932,-0.622117 -0.259932,-1.560112 0,-0.975227 0.01625,-1.064747 0.305408,-1.652095 0.562596,-1.142803 1.644015,-1.934917 3.175,-2.326473 0.842113,-0.215379 1.603905,-0.323457 2.365747,-0.323495 z m 37.202893,11.04222 h 5.2e-4 5.2e-4 5.1e-4 c 2.9e-4,2e-5 6.2e-4,3.9e-5 10e-4,0 0.002,-1.84e-4 0.004,-2.2e-5 0.006,0 0.007,-3.4e-5 0.0147,-4.65e-4 0.0227,0 0.007,4.48e-4 0.0131,8.04e-4 0.0191,0.0016 0.004,5.64e-4 0.008,6.32e-4 0.0124,0.001 l -0.002,10e-4 c -0.004,-5.84e-4 -0.008,-5.57e-4 -0.0119,-10e-4 -0.007,-5.15e-4 -0.0126,-0.0011 -0.0186,-0.0015 -0.007,-4.65e-4 -0.0137,-3.9e-5 -0.0217,0 -0.004,-10e-5 -0.01,0.001 -0.0155,0.0015 -0.001,2.25e-4 -0.002,3.96e-4 -0.004,5.17e-4 0.001,4.31e-4 0.003,6.34e-4 0.004,10e-4 0.004,0.0012 0.008,0.0012 0.0124,0.0016 h 5.2e-4 0.007 0.006 0.004 0.002 c 9.9e-4,-7.8e-5 0.002,9.8e-5 0.003,0 10e-4,-1e-4 0.002,-4.74e-4 0.003,-5.17e-4 10e-4,-5.2e-5 0.002,7e-6 0.003,0 0.003,-1.8e-5 0.006,2e-6 0.008,0 h 5.2e-4 c 4.6e-4,2e-6 0.001,10e-7 0.002,0 0.002,-1.39e-4 0.003,-4.57e-4 0.005,-5.17e-4 0.005,-1.72e-4 0.009,7.9e-5 0.0134,5.17e-4 h 5.2e-4 c 5.2e-4,-7.5e-5 5.5e-4,-5.06e-4 0.002,-5.17e-4 h 0.003 c 7.5e-4,-10e-7 0.002,-4e-6 0.003,0 6.2e-4,1.7e-5 0.001,8.6e-5 0.002,0 v 0.001 h 5.2e-4 5.2e-4 v 10e-4 h -5.2e-4 c -0.002,1.7e-5 -0.003,2.44e-4 -0.005,0 -5e-4,-1.2e-4 -0.001,-4.01e-4 -0.002,-5.17e-4 -8.7e-4,1.06e-4 -0.002,-1.25e-4 -0.003,0 -8e-4,1.04e-4 -10e-4,4.05e-4 -0.002,5.17e-4 -0.002,3.11e-4 -0.003,1.4e-5 -0.005,0 -0.002,-1.8e-5 -0.003,-5e-6 -0.005,0 h -5.2e-4 c -0.002,1.7e-4 -0.004,2.75e-4 -0.006,5.17e-4 -0.005,5.05e-4 -0.008,4.88e-4 -0.0124,0.001 -0.004,2.51e-4 -0.007,-4.01e-4 -0.0103,-5.17e-4 h -5.2e-4 c -0.001,1.39e-4 -0.002,4.14e-4 -0.004,5.17e-4 -0.006,2.74e-4 -0.0121,3.4e-5 -0.0181,0 -0.005,-2.5e-5 -0.009,-4e-6 -0.0139,0 -0.003,9e-6 -0.005,8.5e-5 -0.007,5.16e-4 -0.002,4.3e-4 -0.005,5.15e-4 -0.008,5.17e-4 -0.002,-1.3e-5 -0.003,6e-6 -0.005,0 -0.001,-2e-6 -0.001,0 -0.002,0 v -10e-4 h 0.002 c 0.002,6e-6 0.003,-1.4e-5 0.005,0 0.003,10e-7 0.005,-9.9e-5 0.008,-5.17e-4 0.002,-2.51e-4 0.003,-4.49e-4 0.004,-5.17e-4 -3.2e-4,-2.1e-5 -7.1e-4,-4.95e-4 -0.001,-5.17e-4 h -0.003 c -8e-5,-5e-6 -3.1e-4,-2e-6 -5.2e-4,0 -5e-4,4.5e-5 -0.001,7e-6 -0.002,0 h -5.2e-4 c -6.2e-4,-4.3e-5 -0.001,5.1e-5 -0.002,0 h -5.2e-4 -5.2e-4 c -9.2e-4,8.9e-5 -0.002,4.86e-4 -0.003,5.17e-4 h -5.2e-4 l -5.2e-4,5.17e-4 h -5.1e-4 v -5.17e-4 c -0.001,1.5e-5 -0.002,7.1e-5 -0.004,0 v -5.17e-4 h -0.004 v -0.001 h 0.005 v -5.17e-4 c 4.4e-4,-1.3e-5 10e-4,4e-6 0.002,0 h 5.2e-4 c 1.4e-4,1e-6 6.2e-4,0 0.001,0 h 5.2e-4 l 0.002,-10e-4 c 0.002,-2.31e-4 0.006,-6.75e-4 0.009,-0.001 8.8e-4,-1.69e-4 0.002,-3.82e-4 0.003,-5.17e-4 2.7e-4,-1.12e-4 8.4e-4,-4.13e-4 10e-4,-5.17e-4 h 0.001 c 6.6e-4,-3e-6 0.001,-9e-6 0.002,0 h 5.1e-4 c 0.003,-2.96e-4 0.005,-7.33e-4 0.008,-10e-4 0.002,-2.23e-4 0.003,-8.05e-4 0.005,-0.001 z m -0.0202,0.0036 c -3.3e-4,4.8e-5 -8.3e-4,4.6e-4 -0.001,5.16e-4 -5e-4,5e-5 -7.5e-4,-7.8e-5 -0.002,0 h -5.2e-4 c -0.003,4.1e-4 -0.004,9.18e-4 -0.007,0.001 2.3e-4,7e-6 10e-4,-8e-6 0.002,0 h 5.1e-4 c 9e-5,4e-6 2.6e-4,4.19e-4 5.2e-4,5.17e-4 3.9e-4,1.46e-4 9e-4,-8e-6 0.001,0 h 0.002 c 4.1e-4,-4e-6 8.8e-4,-1e-5 0.001,0 h 5.1e-4 c 1.8e-4,8e-6 3.9e-4,1.7e-5 5.2e-4,0 4.1e-4,-4e-6 8.9e-4,-1.2e-5 0.001,0 h 0.003 c 1.9e-4,1.1e-5 3.3e-4,-1.2e-5 5.2e-4,0 h 0.004 0.006 0.005 c -8.6e-4,-2.01e-4 -0.002,-2.47e-4 -0.003,-5.17e-4 -0.003,-7.6e-4 -0.004,-0.0015 -0.007,-0.0015 -4e-4,2.8e-5 -7.6e-4,-2.9e-5 -0.001,0 -0.002,-2.7e-5 -0.003,-3.95e-4 -0.005,0 z m 0.0475,0.0031 c 10e-4,1.35e-4 0.002,6.13e-4 0.003,5.17e-4 8.8e-4,-1.07e-4 10e-4,-4.37e-4 0.002,-5.17e-4 z m -10.52442,0.144177 0.38551,0.402043 c 0.44242,0.461737 0.92646,0.652905 2.04793,0.807186 0.41159,0.05662 0.76594,0.120117 0.78704,0.141077 0.14698,0.145872 -0.67994,2.009025 -1.10795,2.496488 -0.16849,0.191897 -0.3336,0.34353 -0.3669,0.33693 -0.0333,-0.0066 -0.32182,-0.27771 -0.6413,-0.602547 -0.87905,-0.893799 -2.10271,-1.413148 -3.81579,-1.619539 -0.72044,-0.0868 -0.76172,-0.105531 -1.11053,-0.49506 -0.60155,-0.671778 -1.02262,-1.202288 -0.98392,-1.239718 0.0201,-0.01944 1.1095,-0.07862 2.42104,-0.131258 z m -31.384647,4.395598 c 0.02406,-0.0039 0.03928,-0.0041 0.04341,5.17e-4 0.0165,0.01831 0.156765,0.286104 0.312125,0.594795 0.369263,0.733703 1.233353,1.748089 1.945618,2.284615 1.130286,0.851414 1.053908,0.757272 0.960148,1.184941 -0.119502,0.545105 -0.623422,1.338739 -1.061434,1.671733 -0.361256,0.274642 -0.641515,0.383596 -2.057755,0.798917 -1.155982,0.339003 -1.30972,0.341358 -1.62419,0.02687 -0.183208,-0.183208 -0.34478,-0.509306 -0.480591,-0.969967 -0.112546,-0.38174 -0.369067,-0.994166 -0.569991,-1.36064 -0.51969,-0.947853 -0.498239,-1.12658 0.229443,-1.912545 0.327131,-0.353333 0.800974,-0.957355 1.052649,-1.342554 0.378949,-0.57999 0.526467,-0.726881 0.860413,-0.854728 0.166333,-0.06368 0.317965,-0.110376 0.390157,-0.121956 z m 31.481287,11.812715 c 0.0978,0.0092 0.22657,0.147899 0.4041,0.433566 0.16257,0.261516 0.29559,0.511708 0.29559,0.556038 0,0.115081 -0.86046,0.42346 -2.47891,0.888835 -2.67518,0.769199 -4.86713,1.140045 -7.483269,1.265039 -2.313946,0.110562 -2.497214,0.10418 -4.350122,-0.148312 -1.039327,-0.14162 -2.26558,-0.380801 -3.08715,-0.60203 l -0.396358,-0.106453 0.04444,-0.463538 c 0.02448,-0.254727 0.0687,-0.487274 0.09819,-0.516764 0.02949,-0.02949 0.67767,0.0397 1.440222,0.153479 1.733718,0.258668 5.171423,0.352294 7.092587,0.19327 2.62908,-0.217628 5.68773,-0.819694 8.38088,-1.649512 0.0128,-0.0039 0.0258,-0.0049 0.0398,-0.0036 z m 1.04903,1.869654 c 0.0199,0.01988 0.22222,0.775005 0.44906,1.67845 0.54064,2.15272 1.0929,4.89599 1.45263,7.21558 l 0.2899,1.86965 -0.31522,0.28836 c -0.57518,0.52712 -2.37533,1.14868 -4.33049,1.495 -1.82288,0.32289 -4.3042,0.2801 -6.32674,-0.10904 l -0.829409,-0.15968 v -0.34882 c 0,-0.50259 -0.346961,-2.46029 -0.501779,-2.83083 -0.123428,-0.29541 -0.182004,-0.32701 -0.960664,-0.51883 -1.157213,-0.28506 -1.925509,-0.67194 -2.09703,-1.05575 -0.232447,-0.52015 -1.147984,-0.59495 -1.27124,-0.10387 -0.139999,0.55781 0.631866,1.15009 2.118217,1.62522 0.488764,0.15624 0.921065,0.3158 0.960665,0.3545 0.118101,0.11551 0.44235,1.94147 0.44235,2.4908 0,0.45173 -0.02367,0.51468 -0.210323,0.55708 -0.115763,0.0263 -0.399962,0.094 -0.631486,0.15038 -0.544433,0.1327 -4.367947,0.19366 -5.098397,0.0811 -0.980992,-0.15093 -1.82147,-0.4469 -1.92133,-0.67696 -0.07244,-0.16687 -0.373852,-2.77661 -0.328662,-2.84531 0.007,-0.0106 0.195787,0.0441 0.420129,0.12144 0.43093,0.1485 0.860432,0.10805 1.030429,-0.0966 0.109212,-0.1316 -0.04149,-0.28535 -1.016476,-1.03457 -0.557424,-0.42835 -0.980995,-0.9189 -1.372009,-1.59008 -0.247904,-0.42553 -0.275471,-0.56039 -0.304891,-1.49655 -0.02755,-0.87667 -0.0029,-1.10293 0.165364,-1.52807 0.233606,-0.59026 1.023531,-1.847878 1.358057,-2.162141 l 0.235645,-0.221175 1.147733,0.249597 c 1.886239,0.410476 2.915906,0.532555 4.982642,0.591695 2.232262,0.06387 4.045725,-0.05235 6.121585,-0.393258 1.58925,-0.260979 3.94336,-0.837327 5.33043,-1.30483 0.53632,-0.180757 0.99141,-0.312358 1.01131,-0.292488 z m 1.99781,12.13311 0.0873,0.20567 c 0.0479,0.11304 0.19976,0.77356 0.33796,1.46813 0.19133,0.96154 0.26074,1.63139 0.29094,2.80654 l 0.0398,1.54306 -0.34571,0.93586 c -0.19025,0.51449 -0.48984,1.35475 -0.66559,1.86759 -0.40653,1.18628 -0.50591,1.33033 -1.09399,1.58905 -1.13409,0.49895 -4.90501,1.66871 -6.50762,2.01848 -0.45919,0.10022 -1.96718,0.32865 -3.35121,0.50798 -2.641204,0.34222 -3.408396,0.52259 -4.443143,1.04335 -1.142473,0.57498 -1.202311,0.37884 -0.226343,-0.74053 0.37835,-0.43394 0.944149,-1.12585 1.257804,-1.53789 1.073938,-1.41079 2.100714,-2.11403 3.782712,-2.59157 1.37753,-0.3911 2.37899,-0.52831 4.28036,-0.58601 l 1.82418,-0.0553 0.3452,-0.37724 c 0.28651,-0.31313 0.36428,-0.48874 0.45578,-1.03146 0.17126,-1.01535 -0.0331,-2.50538 -0.38757,-2.82619 -0.21711,-0.19654 -0.88985,-0.21122 -1.07745,-0.0238 -0.11786,0.11789 -0.11587,0.18812 0.0139,0.55035 0.21239,0.59172 0.27166,1.6196 0.13901,2.40606 l -0.11369,0.67541 h -1.233 -1.233 l -0.11007,-0.57929 c -0.14144,-0.74426 -0.56562,-1.57451 -1.21646,-2.38125 -0.80512,-0.99796 -1.19083,-1.63741 -1.66295,-2.75591 -0.24005,-0.56871 -0.42179,-1.04891 -0.40359,-1.06711 0.0182,-0.0182 0.49544,0.0302 1.0604,0.10748 1.22832,0.16811 4.04889,0.19046 5.23637,0.0419 1.37313,-0.17206 2.68257,-0.46208 3.83594,-0.84956 z m -12.568744,1.08882 0.259415,0.68988 c 0.416314,1.10833 1.069579,2.30721 1.667599,3.05976 0.7136,0.89798 0.99839,1.31997 0.99839,1.47898 v 5.2e-4 c 0,0.14569 -7.4e-4,0.14509 -0.55811,-0.003 -0.37563,-0.10021 -0.43296,-0.15356 -0.56844,-0.52865 -0.37936,-1.05026 -0.68016,-1.3994 -1.204575,-1.3994 -0.748554,0 -0.816001,0.15648 -0.381889,0.88832 0.152593,0.25724 0.278259,0.4945 0.279053,0.5271 8.78e-4,0.0326 -0.535169,0.0394 -1.191142,0.015 -0.655975,-0.0244 -1.499242,-0.006 -1.874304,0.0413 l -0.682129,0.0853 -0.635104,-0.66869 c -0.766037,-0.80645 -2.176986,-2.71476 -2.85874,-3.86643 -0.06083,-0.1028 0.186737,-0.1133 1.409733,-0.0615 1.327814,0.0562 2.420127,0.009 4.721676,-0.20154 z m -1.285193,5.39554 c 0.716095,-0.003 1.623471,0.12795 2.749187,0.39532 0.69559,0.1652 1.14582,0.22445 1.42265,0.18655 0.4008,-0.0549 0.40577,-0.0527 0.46457,0.26097 0.1089,0.58048 0.0353,0.64695 -0.91725,0.82217 -1.663973,0.30608 -3.224015,0.93106 -4.251941,1.70377 -0.349951,0.26307 -0.904719,0.86199 -1.482597,1.60042 -0.898715,1.1484 -0.931419,1.17848 -1.207678,1.10898 -0.401045,-0.10092 -0.968454,-0.092 -1.077454,0.017 -0.06063,0.0606 0.03638,0.62013 0.283187,1.63246 0.276738,1.13513 0.400529,1.88484 0.469739,2.84995 0.05165,0.72029 0.161433,1.5833 0.243913,1.91772 0.249742,1.01261 0.252412,1.14631 0.03101,1.42782 -0.241826,0.30749 -0.464693,0.43375 -0.655257,0.37155 -0.229485,-0.0749 -0.633397,-0.49291 -0.751375,-0.77773 -0.07151,-0.17264 -0.220819,-0.3018 -0.427364,-0.37 -0.174757,-0.0577 -0.31781,-0.14197 -0.31781,-0.18707 0,-0.107 -0.3803,-0.1725 -1.63711,-0.28112 -0.565938,-0.0489 -1.182562,-0.11411 -1.370459,-0.14521 -0.270821,-0.0449 -0.382371,-0.0161 -0.537951,0.13952 -0.107942,0.10794 -0.196371,0.23346 -0.196371,0.27906 0,0.20385 0.667538,0.37041 1.730644,0.43201 1.276833,0.0739 1.571908,0.18822 1.525488,0.59015 l -0.02894,0.25114 -0.914673,-0.0114 c -1.488302,-0.0191 -2.158462,-0.41444 -2.438094,-1.43816 -0.0773,-0.28297 -0.257113,-0.78851 -0.399459,-1.12293 -0.326562,-0.7672 -0.340344,-1.44209 -0.04289,-2.10426 0.500038,-1.11318 0.41688,-1.90927 -0.290938,-2.78743 -0.850971,-1.05577 -1.011951,-1.65901 -0.572058,-2.14509 0.355397,-0.39271 0.667374,-0.46431 2.555916,-0.58704 1.978084,-0.12855 2.269302,-0.20157 3.10472,-0.77722 0.556043,-0.38313 0.883985,-0.72772 1.264006,-1.32756 0.760298,-1.20009 1.460935,-1.63508 3.019454,-1.87689 0.197094,-0.0306 0.41449,-0.0466 0.65319,-0.0475 z m -11.972396,6.32312 c 0.155043,-10e-4 0.91641,0.90272 1.156519,1.37305 0.188848,0.36995 0.194487,0.77582 0.01705,1.20044 -0.162426,0.38873 -0.229876,0.39939 -0.526066,0.0806 -0.339164,-0.36489 -1.298015,-1.02847 -1.871721,-1.29553 -0.576905,-0.26855 -1.305216,-0.31864 -1.48518,-0.1018 -0.157218,0.18937 -0.07591,0.28198 0.537435,0.60978 0.804173,0.4298 1.722644,1.15319 2.278414,1.79472 0.457737,0.52838 0.534229,0.68913 0.979268,2.05672 0.26556,0.81604 0.587888,1.6218 0.716235,1.79007 0.604414,0.79243 1.848253,1.12847 3.997689,1.08107 l 1.449524,-0.0315 0.269234,0.55552 c 0.192813,0.39818 0.243581,0.59598 0.178801,0.69867 -0.05418,0.0859 -0.480244,0.22731 -1.064018,0.35347 -0.53557,0.11575 -1.247396,0.20918 -1.581816,0.20618 -0.891385,-0.007 -1.459329,-0.25938 -0.89917,-0.39997 0.498631,-0.12515 0.294631,-0.6205 -0.253731,-0.6165 -0.163534,0.001 -0.486787,0.0469 -0.718302,0.1018 -1.368985,0.32451 -1.841209,0.26102 -2.273247,-0.30541 -0.356626,-0.46757 -0.413766,-0.68406 -0.525549,-1.99212 -0.05955,-0.69685 -0.163947,-1.32572 -0.251147,-1.50947 -0.209351,-0.44118 -0.702987,-0.85997 -1.727543,-1.46503 -0.980855,-0.57926 -1.31683,-0.8866 -1.53169,-1.40095 -0.289266,-0.69249 -0.157864,-1.33036 0.366386,-1.77922 0.43466,-0.37215 2.161439,-0.99959 2.762622,-1.00459 z" /><path
       id="path695"
       style="fill:#ff0000;fill-opacity:0.00202547;stroke-width:0.0935442"
       d="m 84.911096,69.414884 c -0.276553,8.21e-4 -0.582415,0.0066 -0.926041,0.01499 -1.549163,0.03769 -1.992247,0.08031 -2.559017,0.246496 -1.241417,0.364007 -2.711907,1.236594 -3.233395,1.920296 -0.91691,1.202132 -1.149727,3.318355 -0.506946,4.605404 0.446632,0.894292 1.725074,1.771616 3.115573,2.137337 0.308693,0.08119 1.058009,0.195904 1.665014,0.254765 l 1.104326,0.106454 -0.02842,0.375687 -0.02739,0.376205 -1.263489,0.211873 c -1.346078,0.226013 -3.571889,0.351719 -7.950936,0.450102 -1.363404,0.03063 -2.615564,0.07652 -2.782776,0.102319 l -0.304374,0.04754 v 15.758212 15.757696 h 1.964738 1.964221 V 96.999764 82.219788 h 1.473812 l 1.473295,-5.17e-4 -0.02997,0.977718 c -0.01611,0.537311 0.01349,1.131497 0.06563,1.320333 0.08941,0.323816 0.0651,0.391623 -0.42478,1.197859 -0.589215,0.969723 -1.000703,1.500202 -1.65933,2.141472 l -0.45682,0.445967 0.04909,0.541053 c 0.03494,0.385345 0.169124,0.78213 0.467154,1.378727 0.230188,0.460778 0.471823,1.062733 0.536919,1.338419 0.187928,0.795916 0.840404,1.39676 1.689819,1.555461 0.630471,0.117795 2.98196,-0.427586 4.082438,-0.946712 0.892376,-0.420959 1.514552,-1.11668 1.890841,-2.113566 0.07147,-0.189341 0.139488,-0.239517 0.263033,-0.195337 0.373608,0.133604 1.440401,0.80229 2.36523,1.48363 0.567308,0.417946 1.426673,0.935618 2.034501,1.225248 0.578804,0.275799 1.525978,0.725991 2.104781,1.000456 1.236832,0.586504 1.531633,0.815921 1.88464,1.46451 0.369411,0.67873 0.415911,1.570777 0.158646,3.02979 -0.107768,0.611192 -0.195853,1.212325 -0.195853,1.335835 0,0.136937 -0.20553,0.466975 -0.526583,0.845426 -2.000147,2.35776 -2.312201,4.50713 -0.945162,6.50865 0.307332,0.44997 0.409471,0.9385 0.587044,2.80964 0.188296,1.98415 0.240766,2.16995 0.677995,2.39417 0.455035,0.23336 0.596003,0.39997 1.517737,1.78698 0.995084,1.49737 2.057651,2.90089 2.689241,3.55327 0.273343,0.28234 0.448622,0.52966 0.389641,0.54932 -0.05898,0.0197 -0.323248,0.21129 -0.587045,0.42633 -0.457688,0.3731 -0.623575,0.56725 -1.370975,1.60868 -0.180134,0.25101 -0.589613,0.63268 -0.910022,0.8475 -0.648093,0.43452 -0.620345,0.42902 -3.019971,0.57257 -1.287107,0.077 -1.504036,0.11502 -1.917712,0.33177 -0.808727,0.42371 -1.050436,0.72318 -1.151351,1.42575 l -0.06305,0.43977 -0.7953,0.16123 c -1.410504,0.28578 -2.84002,0.97978 -3.274219,1.58956 -0.250302,0.35151 -0.272102,1.79477 -0.03256,2.15388 0.351879,0.52751 0.877936,0.97829 1.716691,1.47226 1.417821,0.83503 1.680867,1.20474 1.683619,2.36058 0.0018,0.74103 0.167072,1.65131 0.372587,2.05414 0.414881,0.81322 1.186739,1.24535 2.853055,1.59525 1.632761,0.34285 3.786361,0.37943 5.215186,0.0884 0.517036,-0.10537 1.065271,-0.25587 1.218013,-0.33486 0.271785,-0.14054 0.276853,-0.15634 0.229961,-0.72089 -0.02635,-0.31728 -0.0773,-0.66817 -0.113172,-0.78031 -0.05461,-0.17072 -0.0055,-0.23466 0.303341,-0.39222 0.463299,-0.23636 0.922177,-0.75155 1.005106,-1.12913 0.04085,-0.18601 -0.02151,-0.64771 -0.174666,-1.29347 -0.147294,-0.62101 -0.266549,-1.48119 -0.312126,-2.25515 -0.0862,-1.46368 -0.172886,-1.3149 1.167371,-2.00557 1.113026,-0.57358 1.508826,-0.67103 4.044196,-0.99787 3.62949,-0.46789 5.26865,-0.84537 8.56227,-1.97197 2.68167,-0.91729 2.89225,-1.06946 3.31401,-2.39055 0.1459,-0.45701 0.44828,-1.2939 0.67231,-1.85984 l 0.40721,-1.02888 -0.007,-1.73064 c -0.007,-1.6252 -0.0287,-1.83297 -0.35915,-3.41426 -0.25783,-1.23367 -0.33435,-1.78412 -0.28577,-2.05827 0.0365,-0.2058 0.0605,-0.56327 0.0532,-0.79479 -0.0186,-0.59043 -0.53024,-3.8051 -0.86351,-5.42551 -0.38887,-1.89073 -1.25299,-5.400003 -1.43609,-5.832715 -0.28241,-0.667396 -1.1504,-1.971401 -2.06447,-3.101103 -0.90458,-1.117963 -1.18278,-1.587512 -1.29295,-2.184362 -0.0425,-0.230464 -0.0267,-0.301454 0.0589,-0.266651 1.2579,0.511545 1.82614,0.7056 3.33984,1.140499 1.52616,0.438477 1.90895,0.515239 2.55954,0.514181 0.92201,-0.0017 1.80301,-0.196185 2.42621,-0.535368 0.72715,-0.395768 0.81803,-0.565891 0.81803,-1.531173 0,-0.816538 0.004,-0.833579 0.40825,-1.460376 0.58224,-0.903822 0.77144,-1.306114 1.05316,-2.241207 0.23023,-0.764159 0.24951,-0.960437 0.2589,-2.64945 0.006,-1.129641 -0.0393,-2.150271 -0.11937,-2.680974 -0.12584,-0.834016 -0.12356,-0.868934 0.0832,-1.296045 0.11685,-0.241372 0.42743,-0.662668 0.6904,-0.936377 l 0.47852,-0.497644 1.86914,-0.05116 v -2.186947 l -1.86397,0.07131 -0.22221,-0.239262 c -0.28351,-0.305756 -0.57392,-0.415023 -1.12241,-0.42013 -0.52084,-0.0048 -1.032,-0.108819 -1.60714,-0.328145 -0.45777,-0.174572 -2.5387,-0.35348 -4.20956,-0.361735 -0.95357,-0.0047 -1.0003,0.0049 -1.5906,0.328145 -0.41404,0.226757 -0.72141,0.483837 -0.96325,0.805636 l -0.35502,0.472322 -1.37511,0.05891 c -0.75647,0.03212 -2.76495,0.105846 -4.46278,0.163814 l -3.08663,0.10542 -0.74827,-0.219108 c -0.63456,-0.185722 -0.96202,-0.219537 -2.15181,-0.222209 -0.771732,-0.0017 -1.781779,0.04952 -2.244821,0.113688 -0.466732,0.06468 -1.738073,0.115024 -2.853056,0.113172 l -2.011247,-0.0036 -0.291972,-0.397392 c -0.439912,-0.599238 -0.706772,-1.17207 -0.641494,-1.377744 0.06467,-0.203774 1.349207,-1.230827 2.038635,-1.629875 0.630112,-0.364719 0.768181,-0.597897 0.620634,-1.050582 -0.486423,-1.49238 -3.449323,-3.584688 -6.534485,-4.614705 -1.284843,-0.428963 -1.936398,-0.551171 -3.429765,-0.546737 z m -0.414445,0.596863 v 5.17e-4 c 0.761843,-3.7e-5 1.522924,0.107167 2.364714,0.322461 1.79352,0.458706 4.160942,1.68483 5.562968,2.881995 0.536321,0.457954 1.257024,1.458877 1.185457,1.645377 -0.02471,0.06441 -0.390889,0.268495 -0.813904,0.454753 -0.423011,0.186259 -1.27403,0.574593 -1.891357,0.861963 -0.61733,0.287364 -1.234135,0.522448 -1.370459,0.522448 -0.136321,0 -0.487929,-0.126774 -0.781348,-0.281119 -0.849489,-0.44686 -1.712176,-0.342143 -1.390096,0.168465 0.166327,0.263684 1.039013,0.680456 1.620573,0.774113 0.525385,0.08461 1.383341,0.01068 1.820561,-0.157097 0.08526,-0.03272 0.136442,0.08042 0.170015,0.378272 0.02829,0.250981 0.165368,0.605294 0.334347,0.865063 0.15748,0.242095 0.265073,0.473778 0.239778,0.514698 -0.0787,0.12734 -0.751273,-0.275336 -1.346171,-0.806153 -0.612286,-0.546336 -0.944769,-0.677157 -1.339453,-0.527099 -0.47447,0.180391 -0.242495,0.645399 0.629936,1.263488 1.218681,0.863398 1.103119,0.8382 3.793567,0.818038 1.309474,-0.0098 2.459645,0.0067 2.555916,0.03721 0.166232,0.05276 0.166435,0.06446 0.01292,0.234095 -0.153291,0.169389 -0.152915,0.188439 0.0078,0.365869 0.260041,0.287341 0.660685,0.228834 1.588533,-0.232027 1.777589,-0.882938 3.456362,-0.913331 5.182632,-0.09354 1.23999,0.588866 2.32658,1.519646 3.75274,3.214791 l 0.42116,0.500228 0.86197,0.07906 c 1.52667,0.140034 2.61594,0.517063 3.37809,1.169438 0.29155,0.249553 0.51935,0.594437 0.85266,1.289327 0.5242,1.09283 0.76214,1.3525 1.38234,1.509985 0.85244,0.216459 1.29933,-0.203836 0.63407,-0.596346 -0.18007,-0.106246 -0.32662,-0.247111 -0.32556,-0.313159 0.004,-0.258649 0.3645,-0.892635 0.78496,-1.382862 0.2427,-0.282967 0.61764,-0.877787 0.83303,-1.321366 0.30528,-0.628674 0.45857,-0.839491 0.69556,-0.957048 0.33882,-0.168069 0.39843,-0.445141 0.16692,-0.775663 -0.21717,-0.310058 -0.69616,-0.485374 -1.8588,-0.681095 -1.43811,-0.242096 -1.87588,-0.478018 -1.11466,-0.60048 0.8039,-0.129326 0.95798,-0.54554 0.53691,-1.450041 -0.12812,-0.275219 -0.23306,-0.538271 -0.23306,-0.58446 0,-0.147656 0.67785,-0.839828 0.97049,-0.991154 0.38847,-0.200883 1.20549,-0.211502 1.42833,-0.0186 0.27409,0.237278 0.53154,0.260046 1.34514,0.118856 0.7586,-0.131641 0.75992,-0.131386 1.56786,0.150378 0.5868,0.204651 0.97961,0.281637 1.43247,0.281637 0.72964,0 0.73582,0.0095 0.73794,1.078487 0.001,0.708515 -0.0138,0.74334 -0.70796,1.599902 -0.21399,0.26404 -0.46434,0.676639 -0.55604,0.91674 -0.1598,0.418359 -0.15988,0.48059 -0.001,1.493449 0.12897,0.822691 0.15616,1.41791 0.12247,2.685108 -0.0383,1.441301 -0.0714,1.713523 -0.29094,2.376082 -0.1364,0.411591 -0.41714,1.04287 -0.62322,1.403015 -0.80991,1.415345 -0.88827,1.627572 -0.89142,2.407088 -0.003,0.825962 -0.0491,0.889858 -0.8387,1.163753 -0.74131,0.257143 -1.32787,0.194012 -3.17707,-0.342097 -2.46954,-0.715964 -4.16951,-1.499736 -4.02301,-1.854668 0.15654,-0.379252 0.14439,-0.452354 -0.0946,-0.561206 -0.13447,-0.06127 -0.41374,-0.111104 -0.62012,-0.111104 -1.03455,0 -2.92174,-0.43299 -3.8747,-0.888835 -0.54314,-0.2598 -0.80199,-0.471847 -1.48776,-1.217496 -1.31832,-1.433456 -3.29863,-2.94504 -3.857647,-2.94504 -0.380348,0 -0.685746,0.142249 -0.685746,0.31936 0,0.06907 0.494623,0.496981 1.099163,0.950846 0.60451,0.453867 1.60779,1.342378 2.22932,1.974557 0.99505,1.012092 1.21808,1.18998 1.86707,1.489831 0.60772,0.280786 1.81518,0.633397 3.13004,0.914157 0.12862,0.02747 0.42755,0.172723 0.66404,0.322977 l 0.42995,0.273369 0.0527,0.689363 c 0.078,1.01656 0.33614,1.592336 1.19062,2.656686 0.41184,0.513 0.74905,1.004349 0.74931,1.092439 6.6e-4,0.1863 -0.77855,0.448859 -2.85254,0.961182 -1.94509,0.480486 -4.00272,0.791489 -5.8937,0.890385 -1.88317,0.09845 -2.462714,0.09779 -3.88193,-0.0047 -0.855306,-0.06167 -3.363551,-0.431837 -3.442167,-0.507979 -0.01549,-0.015 -0.06138,-0.631878 -0.101803,-1.370976 -0.07937,-1.45131 -0.146232,-1.673563 -0.690397,-2.293917 -0.422884,-0.482089 -1.045688,-0.857789 -2.454113,-1.48053 -1.825332,-0.807073 -2.36171,-1.096098 -3.230294,-1.740462 -1.048083,-0.777528 -2.173337,-1.45362 -3.314527,-1.99161 -1.704011,-0.803325 -2.789391,-1.822816 -3.510896,-3.297473 -0.376406,-0.769321 -0.494556,-0.872304 -1.005624,-0.875399 -0.11576,-7.04e-4 -0.294493,0.08314 -0.397392,0.186036 -0.102897,0.102899 -0.202747,0.187068 -0.221691,0.187068 -0.110895,0 -0.366891,-1.271004 -0.36742,-1.824178 -0.0012,-1.126048 0.569105,-2.037468 1.60662,-2.566768 0.398515,-0.203305 1.77015,-0.565316 2.146639,-0.566374 0.194186,-5.85e-4 0.211225,0.03021 0.155546,0.283704 -0.09153,0.416722 0.07393,0.557588 0.654741,0.557588 0.348779,0 0.55897,0.05401 0.728121,0.187069 0.29091,0.228832 1.015529,0.25737 1.190108,0.04703 0.186891,-0.225192 -0.111349,-0.57385 -0.656291,-0.767395 -0.423212,-0.15022 -0.46588,-0.190727 -0.422752,-0.401478 0.08365,-0.408836 0.100375,-2.038359 0.0217,-2.1177 -0.04153,-0.04189 -0.714894,-0.10613 -1.496549,-0.142627 -2.420978,-0.113038 -3.693138,-0.707302 -4.341854,-2.0283 -0.23659,-0.481771 -0.259933,-0.622629 -0.259933,-1.560629 0,-0.975228 0.01625,-1.064227 0.305408,-1.651578 0.562601,-1.142803 1.644017,-1.935428 3.175,-2.32699 0.842115,-0.215379 1.603902,-0.322941 2.365747,-0.322978 z m 26.704829,11.193632 0.38602,0.402043 c 0.44242,0.461736 0.92647,0.652388 2.04794,0.806669 0.41159,0.05662 0.76591,0.120122 0.78703,0.141077 0.14698,0.145876 -0.67994,2.009538 -1.10794,2.497005 -0.16849,0.191897 -0.33314,0.342538 -0.36639,0.335897 -0.0333,-0.0066 -0.32234,-0.277712 -0.64182,-0.602548 -0.87903,-0.893802 -2.1022,-1.412631 -3.81527,-1.619022 -0.72044,-0.0868 -0.76171,-0.105012 -1.11052,-0.494544 -0.60155,-0.671775 -1.02268,-1.202806 -0.98392,-1.240234 0.0201,-0.01944 1.10898,-0.0781 2.42052,-0.130741 z m -31.355191,4.39198 5.17e-4,5.17e-4 c 0.0073,9.5e-5 0.01138,8.02e-4 0.01344,0.0031 0.0165,0.01831 0.157278,0.285581 0.312642,0.594279 0.369262,0.733697 1.233349,1.748082 1.945618,2.284615 1.130286,0.85141 1.05442,0.757272 0.960665,1.18494 -0.119502,0.545107 -0.624459,1.339256 -1.062468,1.67225 -0.36126,0.274647 -0.640991,0.383075 -2.057239,0.7984 -1.155981,0.339002 -1.309715,0.34186 -1.62419,0.02739 -0.183208,-0.183208 -0.34478,-0.509825 -0.480591,-0.970483 -0.112546,-0.381743 -0.369061,-0.993647 -0.569991,-1.360124 -0.519687,-0.947856 -0.498243,-1.126576 0.229444,-1.912545 0.327129,-0.353332 0.800459,-0.957873 1.052132,-1.34307 0.378947,-0.579995 0.526985,-0.726882 0.860929,-0.854729 0.194058,-0.07429 0.367687,-0.125217 0.419096,-0.12454 z m 46.651421,3.512447 v 7.136516 15.533938 h 2.01124 2.01125 V 95.0712 89.109806 Z m -15.21975,8.302853 c 0.1002,-0.0099 0.23452,0.127493 0.42478,0.433565 0.16257,0.261522 0.29559,0.511704 0.29559,0.556038 0,0.11508 -0.86041,0.423977 -2.47892,0.889352 -2.67514,0.769196 -4.86664,1.140046 -7.48274,1.265036 -2.313966,0.11056 -2.497735,0.10366 -4.350643,-0.14883 -1.039328,-0.14162 -2.266094,-0.3808 -3.087667,-0.602026 l -0.395325,-0.105936 0.04393,-0.463021 c 0.02448,-0.254727 0.06921,-0.487794 0.0987,-0.517281 0.02949,-0.02949 0.677666,0.03971 1.440223,0.153479 1.733721,0.258676 5.171422,0.352299 7.092582,0.19327 2.62907,-0.217628 5.68716,-0.819178 8.38037,-1.648995 0.006,-0.002 0.0125,-0.003 0.0191,-0.0036 z m 1.06144,1.867586 c 0.005,8.4e-5 0.008,0.0013 0.009,0.0026 0.0199,0.01988 0.22165,0.775525 0.44855,1.678975 0.54064,2.1527 1.09289,4.896 1.45262,7.21558 l 0.28991,1.86913 -0.31471,0.28887 c -0.57518,0.52712 -2.37534,1.14817 -4.33049,1.49449 -1.82286,0.32289 -4.30473,0.28011 -6.32726,-0.10904 l -0.8294,-0.15916 v -0.34934 c 0,-0.50258 -0.34696,-2.4603 -0.50178,-2.83083 -0.12343,-0.29542 -0.18201,-0.32702 -0.96067,-0.51883 -1.15722,-0.28506 -1.926025,-0.67194 -2.097544,-1.05575 -0.232448,-0.52015 -1.147985,-0.59496 -1.271241,-0.10387 -0.139997,0.5578 0.632382,1.15009 2.118735,1.62522 0.48877,0.15624 0.92106,0.31578 0.96066,0.3545 0.1181,0.11551 0.44235,1.94193 0.44235,2.49132 0,0.45174 -0.0237,0.51468 -0.21032,0.55707 -0.11576,0.0263 -0.39998,0.094 -0.63148,0.15038 -0.54444,0.13269 -4.367947,0.19306 -5.098402,0.0806 -0.980995,-0.15093 -1.821467,-0.44743 -1.921329,-0.67748 -0.07244,-0.16687 -0.37437,-2.77613 -0.329179,-2.84479 0.007,-0.0106 0.196299,0.0436 0.420646,0.12093 0.430928,0.14847 0.860432,0.10867 1.030428,-0.0961 0.109217,-0.1316 -0.04201,-0.28483 -1.016992,-1.03405 -0.557426,-0.42835 -0.980474,-0.91941 -1.371493,-1.5906 -0.247904,-0.42553 -0.275469,-0.56039 -0.304891,-1.49655 -0.02755,-0.87667 -0.0029,-1.10292 0.165365,-1.52807 0.233606,-0.59025 1.023015,-1.84736 1.35754,-2.16163 l 0.236161,-0.22169 1.147217,0.2496 c 1.886243,0.41048 2.916417,0.53308 4.983158,0.59221 2.232271,0.0639 4.045671,-0.0529 6.121591,-0.39377 1.58925,-0.26099 3.94336,-0.83734 5.33042,-1.304837 0.50279,-0.169464 0.93419,-0.295804 1.00253,-0.294555 z m 2.00659,12.135695 0.0863,0.20515 c 0.0479,0.11304 0.20029,0.77408 0.33848,1.46865 0.19131,0.96154 0.26074,1.63135 0.29094,2.80654 l 0.0398,1.54306 -0.34571,0.93535 c -0.19025,0.5145 -0.48986,1.35577 -0.6656,1.86862 -0.40653,1.18626 -0.50592,1.33032 -1.09399,1.58905 -1.13409,0.49894 -4.90501,1.66769 -6.50761,2.01744 -0.45919,0.10022 -1.96714,0.32968 -3.35122,0.50902 -2.64117,0.34222 -3.408385,0.52207 -4.443136,1.04283 -1.142475,0.57497 -1.202313,0.37884 -0.226343,-0.74053 0.378357,-0.43393 0.944666,-1.12586 1.258322,-1.53789 1.073947,-1.41077 2.099667,-2.11454 3.781677,-2.59209 1.37752,-0.39109 2.38002,-0.52834 4.2814,-0.58601 l 1.82417,-0.0553 0.3452,-0.37724 c 0.2865,-0.31313 0.36373,-0.48874 0.45527,-1.03146 0.17126,-1.01535 -0.0326,-2.50536 -0.38705,-2.82618 -0.21711,-0.19649 -0.89036,-0.21131 -1.07797,-0.0238 -0.11788,0.11789 -0.11568,0.1886 0.0145,0.55088 0.21244,0.59171 0.27166,1.61958 0.13901,2.40605 l -0.11368,0.67541 h -1.233 -1.233 l -0.11007,-0.57929 c -0.14144,-0.74426 -0.56562,-1.57503 -1.21647,-2.38177 -0.80509,-0.99796 -1.19135,-1.63741 -1.66346,-2.7559 -0.24005,-0.56871 -0.42126,-1.04842 -0.40308,-1.0666 0.0182,-0.0182 0.49494,0.0301 1.05989,0.10748 1.2283,0.16815 4.0494,0.19112 5.23689,0.0424 1.3731,-0.17206 2.68258,-0.46208 3.83594,-0.84956 z m -12.56926,1.08934 0.2589,0.68988 c 0.41631,1.10832 1.0706,2.30669 1.66863,3.05924 0.7136,0.89799 0.99839,1.31946 0.99839,1.47847 0,0.14604 -0.002,0.14694 -0.55914,-0.003 -0.37563,-0.10021 -0.43296,-0.15357 -0.56844,-0.52865 -0.37935,-1.05027 -0.67964,-1.3994 -1.20406,-1.3994 -0.74855,0 -0.816,0.157 -0.38189,0.88884 0.15259,0.25724 0.27877,0.4945 0.27957,0.5271 8.7e-4,0.0326 -0.53568,0.0389 -1.19166,0.0145 -0.65596,-0.0244 -1.49975,-0.006 -1.874816,0.0413 l -0.681096,0.0858 -0.63562,-0.66921 c -0.76604,-0.80645 -2.176467,-2.71424 -2.858223,-3.86591 -0.06083,-0.10277 0.186734,-0.1138 1.409733,-0.062 1.327812,0.0562 2.42013,0.009 4.721672,-0.20154 z m -1.28571,5.3945 v 5.2e-4 c 0.7161,-0.003 1.62451,0.12847 2.75022,0.39584 0.69559,0.16522 1.14582,0.22347 1.42266,0.18552 0.4008,-0.0549 0.40573,-0.0517 0.46457,0.262 0.1089,0.58048 0.0348,0.64592 -0.91778,0.82113 -1.66393,0.30608 -3.22348,0.93158 -4.251417,1.70429 -0.349949,0.26307 -0.905234,0.86199 -1.483113,1.60042 -0.898718,1.1484 -0.930903,1.17848 -1.207162,1.10898 -0.401043,-0.1009 -0.968969,-0.0924 -1.07797,0.0165 -0.06063,0.0606 0.03638,0.62012 0.283187,1.63245 0.276736,1.13512 0.400007,1.88479 0.469222,2.84996 0.05165,0.72029 0.161948,1.58329 0.244429,1.91771 0.249747,1.0126 0.252436,1.14683 0.03101,1.42834 -0.241832,0.30743 -0.464694,0.43375 -0.655257,0.37155 -0.229488,-0.0749 -0.633399,-0.49291 -0.751375,-0.77773 -0.07151,-0.17264 -0.221337,-0.30235 -0.427881,-0.37052 -0.174758,-0.0577 -0.317294,-0.14194 -0.317294,-0.18707 0,-0.107 -0.380297,-0.17199 -1.637109,-0.2806 -0.565939,-0.0489 -1.183079,-0.11458 -1.370976,-0.14573 -0.270825,-0.0449 -0.381854,-0.016 -0.537435,0.13953 -0.107937,0.10794 -0.19637,0.23398 -0.19637,0.27957 0,0.20385 0.667538,0.37045 1.730644,0.43201 1.276835,0.0739 1.571909,0.1877 1.525488,0.58963 l -0.02894,0.25167 -0.914673,-0.0119 c -1.4883,-0.0191 -2.158972,-0.41444 -2.438611,-1.43816 -0.0773,-0.28297 -0.256596,-0.78799 -0.398942,-1.12241 -0.326557,-0.76719 -0.340341,-1.44261 -0.04289,-2.10478 0.500037,-1.11318 0.416883,-1.90927 -0.290938,-2.78743 -0.850971,-1.05573 -1.011952,-1.65901 -0.572058,-2.14508 0.355394,-0.39271 0.666852,-0.4638 2.555399,-0.58653 1.978088,-0.12855 2.269818,-0.20157 3.105237,-0.77722 0.556041,-0.38311 0.883986,-0.72771 1.264005,-1.32756 0.760303,-1.20008 1.460419,-1.63559 3.018938,-1.87741 0.197092,-0.0306 0.414482,-0.0466 0.653182,-0.0475 z m -11.972392,6.32365 c 0.155043,-10e-4 0.916925,0.90324 1.157035,1.37355 0.188851,0.36995 0.194477,0.77583 0.01705,1.20045 -0.162423,0.38873 -0.229871,0.39877 -0.526066,0.0801 -0.339163,-0.3649 -1.298016,-1.02847 -1.87172,-1.29553 -0.576905,-0.26855 -1.305735,-0.31864 -1.485697,-0.1018 -0.157218,0.18944 -0.07539,0.28197 0.537951,0.60978 0.804177,0.4298 1.722128,1.15267 2.277897,1.7942 0.457741,0.52838 0.534746,0.68966 0.979786,2.05724 0.265557,0.81604 0.587889,1.62129 0.716235,1.78956 0.604412,0.79243 1.84773,1.12901 3.997172,1.08159 l 1.450041,-0.0315 0.269234,0.55552 c 0.192815,0.39818 0.243057,0.59598 0.178284,0.69867 -0.05418,0.0859 -0.480243,0.22782 -1.064018,0.35398 -0.535568,0.11573 -1.247397,0.20832 -1.581816,0.20568 -0.891394,-0.007 -1.458816,-0.25887 -0.898653,-0.39946 0.498627,-0.12515 0.294629,-0.62123 -0.253731,-0.61702 -0.163534,0.001 -0.486782,0.0474 -0.718303,0.10232 -1.368987,0.32451 -1.841209,0.26102 -2.273246,-0.30541 -0.356632,-0.46756 -0.413765,-0.68408 -0.525549,-1.99213 -0.05955,-0.69682 -0.164467,-1.32623 -0.251664,-1.50998 -0.209352,-0.44118 -0.702471,-0.85944 -1.727027,-1.46451 -0.980858,-0.57925 -1.316832,-0.88659 -1.531689,-1.40095 -0.289266,-0.69248 -0.157869,-1.33036 0.366386,-1.77922 0.434658,-0.37214 2.160921,-1.00045 2.762105,-1.0051 z" /><g
       id="g642"
       transform="translate(-0.72388299,-67.743458)"><g
         id="g4234"
         transform="matrix(7.0655021,0,0,6.5978239,-576.94801,-389.31191)"><g
           id="g461"><path
             id="text117"
             style="font-size:24px;font-family:roboto;-inkscape-font-specification:roboto;white-space:pre;shape-inside:url(#rect119);fill:#000000;fill-opacity:1"
             transform="matrix(0.26458333,0,0,0.26458333,39.443637,1.2198209)"
             d="m 194.22447,264.68374 v 1.56213 c 0.009,0.0583 0.007,0.11502 0,0.17613 3e-5,0.005 0,0.009 0,0.009 v 0.0921 16.16004 h 2.16805 V 264.6833 Z m 29.59002,0 v 17.99984 h 2.16805 v -17.99984 z m -51.16409,5.08572 c -1.57031,0 -2.79711,0.54718 -3.67957,1.64057 l -0.1056,-1.40612 h -1.98035 v 17.55462 h 2.16777 V 281.453 c 0.88281,0.97656 2.0938,1.46503 3.63286,1.46503 1.50781,0 2.70305,-0.58995 3.58586,-1.76964 0.88281,-1.17969 1.32438,-2.73455 1.32438,-4.66388 v -0.19923 c 0,-2.04687 -0.44536,-3.64451 -1.33599,-4.79295 -0.88281,-1.14844 -2.08592,-1.72287 -3.60936,-1.72287 z m 12.87893,0 c -1.11719,0 -2.11322,0.26968 -2.98822,0.80874 -0.86719,0.53906 -1.5474,1.30503 -2.03923,2.29686 -0.48438,0.99219 -0.72647,2.10942 -0.72647,3.35161 v 0.15215 c 0,1.96875 0.53113,3.55087 1.59363,4.74618 1.07031,1.19531 2.46504,1.79303 4.18379,1.79303 1.14027,0 2.14832,-0.27341 3.02332,-0.82029 0.88282,-0.54687 1.5586,-1.3091 2.02735,-2.28531 0.47656,-0.98438 0.71485,-2.0939 0.71485,-3.32792 v -0.15246 c 0,-1.98437 -0.5352,-3.57425 -1.60551,-4.76956 -1.0625,-1.19531 -2.45695,-1.79303 -4.18351,-1.79303 z m 0,1.78119 c 1.09375,0 1.96874,0.43384 2.62499,1.30103 0.66406,0.85937 0.99598,1.98436 0.99598,3.37499 0,1.55468 -0.32405,2.76564 -0.97248,3.63282 -0.64844,0.85938 -1.52378,1.2889 -2.62499,1.2889 -1.09375,0 -1.9691,-0.42579 -2.62499,-1.27735 -0.64844,-0.85156 -0.97277,-1.98064 -0.97277,-3.38653 0,-1.58594 0.32813,-2.80495 0.98438,-3.65651 0.65589,-0.85156 1.51957,-1.27735 2.58988,-1.27735 z m -13.52357,0.0586 c 1.0625,0 1.89841,0.41429 2.50779,1.24242 0.60937,0.82812 0.91415,1.95685 0.91415,3.38653 0,1.625 -0.30858,2.85177 -0.92576,3.6799 -0.60938,0.82031 -1.43362,1.23028 -2.47268,1.23028 -1.33594,0 -2.32817,-0.57852 -2.97661,-1.73441 v -6.05847 c 0.65625,-1.16371 1.64061,-1.74625 2.95311,-1.74625 z" /><text
             xml:space="preserve"
             transform="matrix(0.26458333,0,0,0.26458333,-2.771381,-5.7745331)"
             id="text621"
             style="font-style:normal;font-variant:normal;font-weight:normal;font-stretch:condensed;font-size:24px;font-family:'Noto Sans Hebrew';-inkscape-font-specification:'Noto Sans Hebrew Condensed';white-space:pre;shape-inside:url(#rect623);fill:#000000"><tspan
               x="380.85938"
               y="323.43495"
               id="tspan389"><tspan
                 style="font-stretch:normal;font-family:roboto;-inkscape-font-specification:roboto"
                 id="tspan387">app</tspan></tspan></text><path
             id="path685"
             style="fill:#000000;stroke-width:0.00989546"
             d="m 92.712235,69.573978 -1.47e-4,7.8e-5 c -0.24316,1.5e-4 -0.266803,0.0014 -0.347703,0.0188 -0.13012,0.02801 -0.218867,0.06321 -0.332417,0.13174 -0.17114,0.103286 -0.26258,0.218868 -0.31128,0.393497 -0.0359,0.128704 -0.02883,0.367773 0.01397,0.468217 0.09235,0.216802 0.323658,0.355071 0.652473,0.390051 0.06143,0.0066 0.130824,0.0119 0.154324,0.0119 h 0.04271 l -2.19e-4,0.04825 c -10e-4,0.02656 -0.005,0.05228 -0.01002,0.05718 -0.0051,0.0049 -0.05571,0.01418 -0.112415,0.02068 -0.05672,0.0065 -0.141672,0.02124 -0.188772,0.03274 -0.08559,0.02088 -0.08658,0.02095 -1.011806,0.05013 -0.16785,0.0053 -0.295214,0.0094 -0.431594,0.01371 v 0.11913 c 2.93e-4,0.0045 3.37e-4,0.0091 1.46e-4,0.01363 1.9e-5,0.0018 -5.4e-5,0.0036 -1.46e-4,0.0054 v 0.118425 c 5.2e-5,0.0014 9e-5,0.0027 7.3e-5,0.0041 -3e-5,1.75e-4 -4.4e-5,2.25e-4 -7.3e-5,3.92e-4 v 0.02781 c 2.91e-4,0.0025 4.06e-4,0.0049 3.66e-4,0.0074 -2.8e-5,5.41e-4 -5.9e-5,0.0011 -7.3e-5,0.0016 1.95e-4,0.001 4.24e-4,0.002 5.85e-4,0.0031 4.33e-4,0.0032 3.83e-4,0.0063 2.92e-4,0.0095 -5e-6,3.63e-4 3e-6,7.29e-4 0,0.0011 0.0012,0.0047 0.0013,0.0097 0.0013,0.01457 -2.7e-5,0.0018 1.6e-5,0.0036 0,0.0054 2e-6,0.0018 -1e-6,0.0035 0,0.0052 -8e-6,0.0014 -5e-6,0.0028 0,0.0042 0.07099,-0.0025 0.127104,-0.0043 0.206325,-0.007 0.36542,-0.01276 0.687908,-0.02318 0.716471,-0.02318 h 0.05208 l -0.006,0.14106 c -0.0027,0.07758 -1.03e-4,0.166777 0.008,0.198237 l 0.01317,0.05718 -0.06948,0.128294 c -0.07476,0.137933 -0.163024,0.258826 -0.236824,0.324259 -0.05654,0.05014 -0.06361,0.07271 -0.05661,0.173173 0.005,0.06769 0.01441,0.09525 0.06531,0.190404 0.0424,0.07924 0.06287,0.132327 0.07087,0.18453 0.0063,0.04033 0.02449,0.09608 0.04059,0.12383 0.03499,0.06045 0.117026,0.12003 0.183726,0.133463 0.08971,0.01806 0.22299,-2.61e-4 0.35882,-0.04966 0.01743,-0.0063 0.07097,-0.02227 0.119071,-0.0354 0.117194,-0.03203 0.240193,-0.10768 0.303892,-0.18688 0.0468,-0.05823 0.09654,-0.16181 0.09654,-0.201213 0,-0.01205 0.0065,-0.02201 0.01448,-0.02201 0.03166,0 0.263691,0.154182 0.352091,0.233952 0.10729,0.0968 0.206733,0.155612 0.463263,0.273976 0.23241,0.107245 0.278608,0.134878 0.330808,0.197531 0.0711,0.08541 0.09872,0.168584 0.0994,0.299274 3e-4,0.06164 -0.0063,0.139947 -0.01529,0.173957 -0.0087,0.03401 -0.02145,0.114787 -0.02845,0.179517 l -0.01258,0.117642 -0.08148,0.102603 c -0.14017,0.176426 -0.21199,0.329594 -0.236385,0.503855 -0.02466,0.176006 0.02778,0.3797 0.128797,0.500487 0.0289,0.03458 0.05276,0.181674 0.07446,0.458505 0.0227,0.289157 0.01632,0.268361 0.09742,0.317054 0.06527,0.03919 0.07354,0.04869 0.136843,0.15602 0.165396,0.280584 0.404177,0.61798 0.488277,0.69003 l 0.02714,0.02334 -0.055,0.03838 c -0.08651,0.06033 -0.137053,0.117731 -0.193453,0.219384 -0.05499,0.09917 -0.09879,0.145303 -0.200182,0.211003 -0.06168,0.03992 -0.06171,0.0399 -0.159004,0.0448 -0.432151,0.02157 -0.443721,0.02327 -0.536621,0.07895 -0.08576,0.0514 -0.124699,0.109812 -0.133699,0.199411 l -0.0069,0.07229 -0.05551,0.0085 c -0.20809,0.03196 -0.421934,0.13252 -0.508097,0.238886 l -0.04725,0.05843 3.65e-4,0.123986 c 3e-4,0.115488 0.0027,0.128336 0.03555,0.185626 0.04838,0.0844 0.126125,0.15221 0.259498,0.22659 0.178312,0.09943 0.216858,0.164716 0.217808,0.368825 0.0011,0.233786 0.05037,0.349005 0.187528,0.438455 0.07205,0.04698 0.128496,0.06514 0.271346,0.08741 0.06084,0.0095 0.129256,0.02454 0.152056,0.03344 l 2.2e-4,1.57e-4 c 0.03757,0.0147 0.06021,0.01618 0.245016,0.01629 l 0.203692,7.8e-5 0.102322,-0.02702 c 0.05632,-0.01488 0.114907,-0.02702 0.130407,-0.02702 0.0158,0 0.04971,-0.01319 0.07731,-0.03 l 0.04922,-0.03008 -2.19e-4,-0.06853 c -1e-4,-0.0377 -0.0089,-0.09109 -0.01953,-0.11866 -0.0156,-0.0404 -0.0162,-0.05076 -0.003,-0.05326 0.02362,-0.0045 0.102593,-0.05643 0.119656,-0.07864 0.0545,-0.07082 0.06146,-0.0853 0.06546,-0.143175 0.0035,-0.04508 -0.004,-0.09017 -0.02713,-0.162286 -0.0268,-0.08395 -0.03342,-0.130684 -0.03942,-0.293087 -0.0041,-0.106264 -0.0107,-0.205575 -0.0147,-0.220715 -0.0069,-0.02643 -0.0025,-0.03043 0.110659,-0.09892 0.12867,-0.0779 0.221409,-0.119228 0.318009,-0.141608 0.03436,-0.008 0.18903,-0.0299 0.34368,-0.04872 0.2888,-0.03516 0.457507,-0.06626 0.658837,-0.121558 0.13836,-0.038 0.373369,-0.114777 0.546642,-0.178577 0.360922,-0.132826 0.401969,-0.164463 0.443369,-0.34149 0.0109,-0.04676 0.04214,-0.142352 0.06934,-0.212492 0.0915,-0.235466 0.09546,-0.258074 0.0945,-0.502366 -9e-4,-0.228256 -0.01477,-0.337504 -0.08747,-0.686349 -0.0262,-0.125861 -0.02755,-0.145239 -0.01185,-0.168239 0.02265,-0.03309 0.02245,-0.08423 -9.51e-4,-0.230192 -0.0103,-0.06436 -0.03048,-0.205765 -0.04498,-0.314155 -0.02745,-0.205841 -0.0787,-0.472563 -0.165002,-0.857877 -0.08665,-0.386968 -0.09338,-0.408152 -0.178679,-0.560326 -0.0428,-0.07651 -0.08532,-0.144294 -0.09332,-0.150694 -0.0084,-0.0064 -0.02551,-0.03074 -0.03781,-0.05412 -0.01234,-0.02338 -0.06421,-0.09367 -0.115413,-0.156177 -0.09777,-0.119492 -0.138476,-0.192965 -0.152276,-0.275385 l -0.008,-0.04966 0.06904,0.03431 c 0.09269,0.04606 0.199081,0.08477 0.348874,0.126963 0.06845,0.01926 0.138605,0.03965 0.156005,0.04535 0.0174,0.0057 0.06021,0.01963 0.09501,0.03102 0.05905,0.01932 0.07199,0.02058 0.190088,0.01778 0.10545,-0.0025 0.138615,-0.0065 0.197915,-0.02397 0.0941,-0.02764 0.175084,-0.07211 0.217076,-0.11913 0.0332,-0.0374 0.03423,-0.04076 0.03123,-0.16119 l -0.003,-0.122968 0.05259,-0.0889 c 0.0289,-0.04888 0.0611,-0.102757 0.0716,-0.119757 0.0282,-0.04589 0.08104,-0.196452 0.104443,-0.29755 0.0334,-0.144395 0.03951,-0.518707 0.01141,-0.695748 -0.0121,-0.07856 -0.02197,-0.159145 -0.02106,-0.179125 0.002,-0.04498 0.05595,-0.145276 0.103053,-0.191736 0.0194,-0.01913 0.04293,-0.04692 0.05193,-0.0618 0.0096,-0.01487 0.01765,-0.0279 0.01865,-0.0289 6.08e-4,-6.08e-4 0.188478,-0.008 0.457485,-0.01809 v -0.347756 c -0.148463,0.0054 -0.275985,0.01023 -0.344559,0.01332 l -0.102979,0.0045 -0.0147,-0.02679 c -0.008,-0.01472 -0.03135,-0.03667 -0.05215,-0.0488 -0.03358,-0.01959 -0.04949,-0.02252 -0.142987,-0.02632 -0.09113,-0.0037 -0.11081,-0.0073 -0.147302,-0.026 -0.09807,-0.0504 -0.237768,-0.07161 -0.348508,-0.05295 -0.0396,0.0067 -0.0541,0.0061 -0.0697,-0.0023 -0.05309,-0.02872 -0.29574,-0.03851 -0.371839,-0.01504 -0.1123,0.03464 -0.196871,0.09927 -0.251671,0.192519 -0.0285,0.04842 -0.03077,0.04997 -0.07387,0.05021 -0.02445,1.4e-4 -0.30921,0.01022 -0.632726,0.0224 l -0.588258,0.02217 -0.0452,-0.017 c -0.18141,-0.06843 -0.411242,-0.08289 -0.615684,-0.03861 -0.08357,0.01811 -0.10578,0.01935 -0.413529,0.02185 l -0.325176,0.0027 -0.03869,-0.05271 c -0.0488,-0.06658 -0.08694,-0.135391 -0.09764,-0.176071 -0.0067,-0.02582 -0.0023,-0.0378 0.02494,-0.0661 0.05415,-0.05636 0.219216,-0.188036 0.272516,-0.217426 0.0734,-0.04047 0.09489,-0.07308 0.08689,-0.134403 -0.01808,-0.144502 -0.214228,-0.348389 -0.505684,-0.525707 -0.219349,-0.133408 -0.448876,-0.228685 -0.655546,-0.272095 -0.05826,-0.01222 -0.107405,-0.01432 -0.329345,-0.01418 z m 0.0106,0.100254 c 0.08379,0 0.223713,0.02229 0.337683,0.05381 0.290773,0.08044 0.67885,0.312351 0.84088,0.502602 0.07191,0.08438 0.115512,0.161947 0.100712,0.179047 -0.0061,0.0071 -0.06097,0.03521 -0.122069,0.06258 -0.06106,0.02737 -0.168075,0.08032 -0.237775,0.117642 -0.0697,0.03732 -0.145466,0.07335 -0.168366,0.08005 -0.0386,0.01126 -0.04494,0.01228 -0.08374,-0.0016 -0.0231,-0.0076 -0.06309,-0.02914 -0.08879,-0.04793 -0.04204,-0.03067 -0.05232,-0.03415 -0.101225,-0.03415 -0.0694,0 -0.0964,0.01696 -0.0964,0.06062 0,0.02951 0.0072,0.03675 0.08148,0.08208 0.06656,0.04058 0.09486,0.0521 0.153958,0.06258 0.08334,0.01478 0.15716,0.01121 0.23346,-0.01128 l 0.05054,-0.01488 v 0.04002 c 0,0.04313 0.03369,0.126328 0.07489,0.184922 0.0169,0.02389 0.0209,0.03642 0.0109,0.03642 -0.02506,0 -0.127837,-0.0725 -0.174437,-0.123124 -0.06901,-0.07497 -0.09731,-0.09328 -0.144011,-0.09328 -0.1167,0 -0.130328,0.0594 -0.0365,0.15696 0.06548,0.06795 0.186272,0.149051 0.256572,0.172311 0.04106,0.01356 0.07012,0.01444 0.392391,0.01214 0.34145,-0.0025 0.347673,-0.0022 0.326273,0.01222 -0.0315,0.02089 -0.0295,0.07486 0.003,0.09469 0.03529,0.02156 0.106273,0.01892 0.140573,-0.002 0.10647,-0.06974 0.142035,-0.08716 0.235435,-0.115449 0.18447,-0.05589 0.33051,-0.04932 0.51212,0.02318 0.11709,0.04674 0.219083,0.113636 0.330223,0.216486 0.08269,0.07652 0.223052,0.242718 0.270615,0.320578 0.02985,0.04882 0.06933,0.06728 0.14423,0.06728 0.13613,0 0.317006,0.04805 0.421061,0.112003 0.11086,0.0681 0.169771,0.14609 0.219271,0.290032 0.03987,0.115891 0.07143,0.157601 0.144231,0.191031 0.09823,0.04511 0.192209,0.02754 0.192209,-0.03595 0,-0.02465 -0.0076,-0.03412 -0.04118,-0.05122 -0.0583,-0.02974 -0.06135,-0.03513 -0.04695,-0.08576 0.0171,-0.05995 0.04586,-0.106434 0.09486,-0.153514 0.05258,-0.05051 0.169926,-0.2734 0.170926,-0.32465 2e-4,-0.0097 0.01537,-0.01972 0.04066,-0.02702 0.0484,-0.0138 0.06437,-0.04228 0.05347,-0.0936 -0.01817,-0.0858 -0.103882,-0.124516 -0.340682,-0.153906 -0.10815,-0.01345 -0.197147,-0.0694 -0.110147,-0.0694 0.04778,0 0.09774,-0.02477 0.11534,-0.05725 0.0179,-0.03307 -5.6e-4,-0.128706 -0.03708,-0.193146 -0.0142,-0.0251 -0.02589,-0.05129 -0.02589,-0.05819 0,-0.02333 0.08464,-0.120188 0.127043,-0.145368 0.04592,-0.02731 0.102493,-0.03742 0.163393,-0.02922 0.0256,0.0034 0.03898,0.0099 0.03898,0.01888 0,0.03895 0.09515,0.0503 0.195354,0.02326 0.08267,-0.02226 0.124281,-0.01952 0.185773,0.0052 0.15954,0.06819 0.151577,0.06612 0.239677,0.06352 l 0.08228,-0.0023 0.009,0.0347 c 0.013,0.05412 0.0114,0.193709 -0.003,0.227999 -0.0072,0.017 -0.04421,0.06924 -0.08221,0.115997 -0.07203,0.08852 -0.107442,0.168313 -0.107442,0.242333 0,0.02103 0.0096,0.08464 0.02143,0.141374 0.03083,0.14861 0.03083,0.536997 -7.3e-5,0.671232 -0.03201,0.139093 -0.07994,0.262496 -0.13794,0.35551 -0.09293,0.148793 -0.128232,0.274844 -0.100932,0.358878 0.0147,0.0451 0.0056,0.06284 -0.04886,0.0961 -0.04839,0.02952 -0.116427,0.05181 -0.180727,0.05921 -0.04093,0.0047 -0.0673,-5.9e-4 -0.208446,-0.04276 -0.36094,-0.107405 -0.433963,-0.134863 -0.579993,-0.218053 -0.11752,-0.06693 -0.125505,-0.07524 -0.101005,-0.103935 0.0253,-0.02969 0.0236,-0.05093 -0.006,-0.07386 -0.02117,-0.01644 -0.03836,-0.0198 -0.118266,-0.0235 -0.05338,-0.0025 -0.143999,-0.01468 -0.211299,-0.02843 -0.24356,-0.04978 -0.399701,-0.122996 -0.476501,-0.223535 -0.09654,-0.126445 -0.170006,-0.204272 -0.289338,-0.306323 -0.09601,-0.0821 -0.259293,-0.202749 -0.281293,-0.207949 -0.0696,-0.01629 -0.144231,0.01215 -0.144231,0.05498 0,0.02301 0.01692,0.04012 0.102322,0.103857 0.1565,0.116753 0.303811,0.255423 0.402411,0.37885 0.08283,0.103635 0.09656,0.115946 0.18826,0.169336 0.11249,0.06549 0.250057,0.113372 0.42194,0.146856 0.101252,0.01973 0.111288,0.02376 0.167488,0.06626 l 0.05976,0.04519 5.12e-4,0.06571 c 0.0014,0.175927 0.04318,0.280258 0.178166,0.444955 0.05603,0.06835 0.102589,0.134457 0.104589,0.146857 0.0026,0.02174 -0.0045,0.02474 -0.200035,0.0849 -0.30512,0.09389 -0.570058,0.148993 -0.893248,0.185783 -0.153611,0.01737 -0.555373,0.01961 -0.702354,0.0067 -0.14336,-0.0142 -0.304955,-0.03878 -0.403655,-0.06141 l -0.07643,-0.01754 -0.002,-0.18453 c -0.0019,-0.20701 -0.01589,-0.258801 -0.100493,-0.37047 -0.05628,-0.07431 -0.13529,-0.12488 -0.349385,-0.22377 -0.28521,-0.131721 -0.36165,-0.176009 -0.46714,-0.270529 -0.10119,-0.09067 -0.308493,-0.224522 -0.434738,-0.280712 -0.25253,-0.112355 -0.440349,-0.303147 -0.536549,-0.545052 -0.0167,-0.04188 -0.03698,-0.08104 -0.04498,-0.08694 -0.0089,-0.0065 -0.03904,-0.01081 -0.07614,-0.01081 -0.0656,0 -0.08608,0.01093 -0.08908,0.04778 -0.0035,0.04153 -0.04927,-0.128613 -0.05727,-0.210533 -0.02156,-0.234115 0.09952,-0.409078 0.333148,-0.481298 0.07326,-0.02265 0.205511,-0.04724 0.216711,-0.04034 0.0046,0.0026 0.0011,0.01614 -0.0069,0.03015 -0.0201,0.03449 -0.01661,0.06011 0.005,0.08067 0.016,0.014 0.032,0.01721 0.0855,0.01731 0.07666,1.4e-4 0.08736,0.0035 0.111464,0.0347 0.0161,0.0208 0.02474,0.02335 0.08323,0.02545 0.0559,0.002 0.06805,-2.99e-4 0.08535,-0.01519 0.027,-0.02358 0.02331,-0.05472 -0.005,-0.09093 -0.02583,-0.03093 -0.07348,-0.05609 -0.124775,-0.06579 -0.02092,-0.004 -0.02699,-0.0092 -0.02099,-0.01833 0.0047,-0.0071 0.01148,-0.08502 0.01551,-0.173251 0.0089,-0.20141 0.01808,-0.191213 -0.1729,-0.191344 -0.07567,-5e-5 -0.16393,-0.0049 -0.20223,-0.01112 -0.313627,-0.05092 -0.485876,-0.213381 -0.505171,-0.476363 -0.02221,-0.302713 0.151457,-0.546775 0.455437,-0.639825 0.121788,-0.03729 0.275033,-0.06289 0.376593,-0.06289 z m 3.774342,1.698757 0.03708,0.04919 c 0.06302,0.0834 0.148079,0.119756 0.324299,0.138476 0.046,0.0049 0.0855,0.01101 0.0885,0.01371 0.01717,0.01803 -0.06863,0.242107 -0.130626,0.341177 -0.0147,0.02338 -0.03741,0.05108 -0.05061,0.06148 l -0.02399,0.01888 -0.02019,-0.02953 c -0.0112,-0.01623 -0.02026,-0.031 -0.02026,-0.0329 0,-0.01173 -0.120489,-0.112922 -0.172389,-0.144742 -0.111852,-0.06856 -0.274773,-0.120135 -0.416965,-0.131975 -0.09942,-0.0083 -0.10723,-0.01095 -0.12953,-0.04511 -0.0115,-0.01772 -0.05336,-0.07248 -0.09296,-0.121637 l -0.07204,-0.08937 0.286706,-0.0094 c 0.157671,-0.0052 0.310677,-0.01146 0.339877,-0.01386 z m -4.436909,0.658857 0.01609,0.04433 c 0.05803,0.158849 0.212722,0.346983 0.383981,0.467121 l 0.06297,0.04417 -0.0091,0.05115 c -0.01805,0.102797 -0.07971,0.204893 -0.162808,0.269197 -0.04662,0.03611 -0.148999,0.07745 -0.221099,0.08929 -0.0289,0.0048 -0.05579,0.0124 -0.06078,0.017 -0.0046,0.0046 -0.03773,0.01672 -0.07343,0.02687 h -7.3e-5 c -0.0358,0.01013 -0.07418,0.0184 -0.08528,0.01841 -0.05545,2.07e-4 -0.108733,-0.07844 -0.125433,-0.185078 -0.0084,-0.05372 -0.02878,-0.107603 -0.07058,-0.186723 -0.09114,-0.172596 -0.09033,-0.189989 0.01236,-0.285098 0.04996,-0.04628 0.15188,-0.188276 0.19828,-0.276246 0.0226,-0.04288 0.0351,-0.056 0.0531,-0.056 0.0129,0 0.03666,-0.0086 0.05266,-0.01919 z m 4.463678,1.796426 v 7.9e-5 7.8e-5 7.8e-5 7.9e-5 h 7.3e-5 c 0,0.0011 0.01968,0.03516 0.04388,0.0759 l 0.04374,0.07409 -0.114829,0.04316 c -0.33079,0.124807 -0.701808,0.214746 -1.068927,0.259016 h 5.12e-4 c -0.136459,0.01646 -0.511778,0.02724 -0.627168,0.01794 -0.1976,-0.0159 -0.472437,-0.06512 -0.624388,-0.111924 l -0.07475,-0.02318 0.004,-0.06846 c 0.0022,-0.03764 0.0073,-0.07039 0.01126,-0.07268 0.0038,-0.0023 0.05216,0.0044 0.10766,0.01488 0.26042,0.04925 0.583666,0.07001 0.892736,0.05733 0.427645,-0.01754 0.799311,-0.08212 1.225811,-0.212962 0.09887,-0.03032 0.179604,-0.05427 0.180361,-0.05342 z m 0.13282,0.283923 0.02194,0.08248 c 0.07825,0.293691 0.199259,0.909498 0.237922,1.210645 0.0142,0.11052 0.03162,0.229901 0.03862,0.26536 0.0125,0.06234 0.01185,0.06564 -0.01975,0.09853 -0.0847,0.08817 -0.370609,0.19236 -0.654594,0.23873 -0.30032,0.04903 -0.603857,0.03902 -0.891127,-0.02922 l -0.07599,-0.01809 -0.0091,-0.103935 c -0.0051,-0.05714 -0.02131,-0.169953 -0.03591,-0.250713 -0.026,-0.143564 -0.04265,-0.181632 -0.07965,-0.181632 -0.0091,0 -0.06835,-0.01534 -0.131651,-0.03415 -0.171404,-0.05091 -0.256791,-0.103645 -0.256791,-0.158684 0,-0.03298 -0.03934,-0.05443 -0.09954,-0.05443 -0.0711,0 -0.09752,0.02084 -0.09552,0.07613 0.002,0.06069 0.04178,0.107381 0.138379,0.162521 0.0664,0.03789 0.217063,0.09402 0.295263,0.109966 0.0173,0.0035 0.0449,0.132351 0.0667,0.311179 0.0143,0.117975 0.01311,0.129429 -0.0061,0.142784 -0.02533,0.01708 -0.166559,0.04335 -0.295555,0.05491 h -5.85e-4 c -0.103206,0.0093 -0.335434,0.0093 -0.424134,2.35e-4 -0.151039,-0.01554 -0.296445,-0.05187 -0.351141,-0.08764 -0.0285,-0.01865 -0.03052,-0.0274 -0.04052,-0.157274 -0.0057,-0.07564 -0.01436,-0.17149 -0.01836,-0.21304 l -0.008,-0.07558 0.04725,0.0195 c 0.05723,0.02371 0.09292,0.02517 0.136916,0.0034 0.0576,-0.02761 0.04682,-0.06036 -0.04008,-0.121949 -0.14009,-0.0993 -0.234544,-0.209805 -0.296944,-0.347443 -0.0372,-0.08244 -0.04031,-0.29773 -0.005,-0.39569 0.05085,-0.142267 0.203811,-0.377812 0.239311,-0.368512 0.395036,0.102923 0.593314,0.128842 0.985183,0.128842 0.310388,0 0.492846,-0.01637 0.791877,-0.07104 0.229918,-0.04204 0.513153,-0.11912 0.741192,-0.20184 z m 0.286925,1.845535 h 7.3e-5 c 0.0023,1.36e-4 0.0037,8.27e-4 0.0042,0.002 0.0066,0.01233 0.06432,0.319306 0.08462,0.450125 0.0083,0.05526 0.01592,0.175301 0.01631,0.266691 7.8e-4,0.180926 -0.0055,0.209643 -0.100932,0.455999 -0.0239,0.06164 -0.05253,0.152023 -0.06363,0.2009 -0.024,0.105409 -0.04865,0.143296 -0.115852,0.177716 -0.08107,0.04152 -0.450694,0.173951 -0.66915,0.239748 -0.26859,0.0809 -0.413372,0.109959 -0.749675,0.150929 -0.1545,0.01882 -0.314198,0.04187 -0.354798,0.05107 -0.09266,0.02099 -0.191722,0.05911 -0.275222,0.10605 h 1.46e-4 c -0.105279,0.05919 -0.106245,0.05947 -0.111245,0.03431 -0.0028,-0.01455 0.01419,-0.0421 0.05149,-0.08349 0.06579,-0.07299 0.163108,-0.197972 0.225708,-0.289875 0.144073,-0.211556 0.285911,-0.314224 0.538157,-0.389581 0.213509,-0.06379 0.413429,-0.08952 0.694675,-0.08952 0.154189,0 0.164248,-8.49e-4 0.182848,-0.01707 0.0107,-0.0094 0.0196,-0.02342 0.0196,-0.03102 0,-0.0076 0.01058,-0.02022 0.02348,-0.02812 0.0835,-0.0508 0.07665,-0.51733 -0.0091,-0.588444 -0.03288,-0.02744 -0.107339,-0.03098 -0.149935,-0.0063 -0.0354,0.02002 -0.03588,0.02587 0.002,0.145447 0.0257,0.08264 0.0292,0.227314 0.0061,0.330368 l -0.01726,0.07918 h -0.166977 -0.166903 l -0.009,-0.06697 c -0.018,-0.1318 -0.09169,-0.276238 -0.222197,-0.435479 -0.07258,-0.08856 -0.134066,-0.204318 -0.195866,-0.368433 -0.0253,-0.06724 -0.049,-0.12776 -0.052,-0.13456 -0.0051,-0.01069 0.0085,-0.01024 0.103492,0.0056 0.465572,0.07584 1.016405,0.02027 1.396078,-0.140825 0.03878,-0.01642 0.06545,-0.0252 0.0776,-0.026 7.74e-4,-4.8e-5 0.002,-8.4e-5 0.0029,-7.8e-5 z m -1.798856,0.157822 c 0.0052,7.9e-5 0.0089,-3.32e-4 0.01024,0.0016 0.0054,0.0037 0.01967,0.03795 0.03167,0.07621 0.06117,0.194623 0.161287,0.393499 0.255987,0.508555 0.06057,0.07364 0.09957,0.129783 0.125872,0.181318 l 3.66e-4,-1.56e-4 c 0.009,0.01807 0.01295,0.03252 0.008,0.03211 -0.0049,-4e-4 -0.03817,-0.0096 -0.07387,-0.02052 l -0.0648,-0.01982 -0.008,-0.0488 c -0.0093,-0.06059 -0.07685,-0.186057 -0.112853,-0.209437 -0.03567,-0.0232 -0.113128,-0.02298 -0.150228,-0.0013 -0.0338,0.02062 -0.02859,0.04861 0.02611,0.140982 0.0223,0.03757 0.03818,0.06995 0.03518,0.07175 -0.0029,0.0018 -0.03558,-0.001 -0.07248,-0.0045 -0.09573,-0.01103 -0.245538,-0.0091 -0.348728,0.0042 -0.0488,0.0063 -0.09218,0.01144 -0.09618,0.01144 -0.01348,0 -0.1469,-0.15632 -0.2211,-0.258938 -0.08092,-0.111985 -0.284563,-0.431157 -0.277563,-0.435557 0.0024,-0.0015 0.04322,0.0014 0.09062,0.0065 0.200102,0.02156 0.605739,0.007 0.780979,-0.02796 0.02106,-0.0042 0.04155,-0.0066 0.05522,-0.007 v -7.8e-5 c 0.002,-6.7e-5 0.0039,-2.7e-5 0.0056,0 z m -0.171218,0.818089 v 7.8e-5 7.8e-5 l -7.3e-5,7.9e-5 v 7.8e-5 c 0.02598,-4.5e-4 0.05456,0.0014 0.09771,0.0052 0.11206,0.01 0.271912,0.04275 0.357212,0.07323 0.06277,0.02244 0.138477,0.0261 0.171877,0.007 0.0213,-0.01153 0.02328,-0.01061 0.03028,0.01355 0.0044,0.01423 0.0059,0.04646 0.004,0.07159 l -0.004,0.04566 -0.07599,0.01308 c -0.31335,0.05386 -0.586468,0.18239 -0.738778,0.347678 -0.0215,0.02337 -0.06277,0.07725 -0.09157,0.119756 -0.02881,0.04251 -0.07851,0.111234 -0.110514,0.152731 l -0.05814,0.07542 -0.02699,-0.01559 c -0.03721,-0.02133 -0.120988,-0.02121 -0.152788,2.35e-4 -0.0269,0.01811 -0.02908,0.0031 0.05032,0.334206 0.0361,0.15074 0.058,0.32275 0.058,0.457801 0,0.112065 0.0051,0.148013 0.03218,0.228704 0.036,0.107074 0.03192,0.136189 -0.02728,0.198159 H 94.489 c -0.0173,0.01807 -0.03613,0.03289 -0.04213,0.03289 -0.006,0 -0.02836,-0.01205 -0.04966,-0.02686 -0.0364,-0.02528 -0.05084,-0.04703 -0.07504,-0.112238 -0.0073,-0.01966 -0.02088,-0.03021 -0.04988,-0.03861 -0.0219,-0.0064 -0.04242,-0.01736 -0.04542,-0.02436 -0.01273,-0.02872 -0.07122,-0.041 -0.210568,-0.0441 -0.10667,-0.0024 -0.140024,-0.006 -0.164124,-0.01754 -0.03537,-0.01696 -0.10071,-0.01853 -0.13421,-0.0042 -0.0132,0.0059 -0.0274,0.02549 -0.0324,0.04457 -0.0086,0.03357 -0.0085,0.03342 -0.01053,-0.013 -8e-4,-0.02582 -0.01526,-0.07482 -0.03196,-0.108948 -0.0744,-0.151664 -0.08422,-0.257789 -0.03342,-0.359818 0.0372,-0.07475 0.05119,-0.133446 0.05098,-0.214136 -3e-4,-0.09541 -0.02412,-0.15501 -0.09362,-0.234109 -0.0989,-0.112944 -0.13176,-0.205174 -0.09786,-0.277578 0.01915,-0.04095 0.07932,-0.08948 0.123824,-0.09978 0.01658,-0.0038 0.136784,-0.01241 0.267104,-0.01911 0.27266,-0.01397 0.274587,-0.01442 0.396487,-0.09391 0.10982,-0.07159 0.158458,-0.121487 0.204058,-0.208967 0.09597,-0.184086 0.214564,-0.266785 0.430936,-0.300605 0.0328,-0.0052 0.05613,-0.0079 0.08206,-0.0083 z m -1.668668,0.957269 0.008,0.01692 c 0.0045,0.0093 0.03557,0.05024 0.06897,0.09093 0.0922,0.11239 0.108153,0.192123 0.05917,0.293556 l -0.01653,0.03438 -0.02333,-0.02702 c -0.06904,-0.08069 -0.213541,-0.187194 -0.315961,-0.232934 -0.05978,-0.02667 -0.143231,-0.03112 -0.176631,-0.0078 -0.0331,0.02234 -0.02707,0.06817 0.01163,0.0885 0.1685,0.08854 0.257479,0.159042 0.373083,0.295671 0.0359,0.04234 0.06977,0.08218 0.07577,0.08858 0.0058,0.0064 0.01655,0.04344 0.02355,0.0824 0.0071,0.03897 0.02695,0.106853 0.04425,0.150773 0.0173,0.04393 0.03747,0.107734 0.04447,0.141844 0.02585,0.123801 0.107888,0.208261 0.248088,0.255491 0.12265,0.04132 0.348185,0.05512 0.488203,0.02976 0.08685,-0.01574 0.09167,-0.01279 0.132967,0.08443 0.0458,0.107931 0.04656,0.106174 -0.04703,0.125944 -0.04338,0.0092 -0.113109,0.02573 -0.154909,0.03666 l 2.93e-4,-1.57e-4 c -0.0933,0.02443 -0.182909,0.02643 -0.250209,0.0042 -0.0482,-0.01553 -0.06271,-0.03039 -0.0294,-0.03039 0.0269,0 0.05778,-0.03099 0.05778,-0.05804 0,-0.0614 -0.08021,-0.07427 -0.216565,-0.03493 -0.09787,0.02822 -0.18079,0.03728 -0.20969,0.02264 -0.04885,-0.02473 -0.104377,-0.09772 -0.131577,-0.173017 -0.0076,-0.02125 -0.01565,-0.109933 -0.01865,-0.197062 -0.0077,-0.254215 -0.04537,-0.31701 -0.26886,-0.448245 -0.107627,-0.06321 -0.147105,-0.0923 -0.178605,-0.131427 -0.0521,-0.06466 -0.08197,-0.151667 -0.07497,-0.216407 0.01356,-0.12169 0.160108,-0.218408 0.410749,-0.270999 z m 0.384199,1.022199 h 7.3e-5 v 7.8e-5 c 0.003,1.62e-4 0.0086,0.0034 0.01675,0.01065 0.03527,0.03072 0.08462,0.04041 0.207349,0.04041 0.07359,0 0.13192,0.0041 0.16332,0.01183 0.0439,0.01072 0.05035,0.01603 0.06385,0.05162 0.008,0.02182 0.01052,0.04261 0.004,0.04621 h 2.93e-4 c -0.01912,0.0117 -0.133545,0.01394 -0.206545,0.0038 -0.11241,-0.01543 -0.171231,-0.04453 -0.221831,-0.109653 -0.02386,-0.03071 -0.03424,-0.0526 -0.02852,-0.05467 l 7.3e-5,-7.8e-5 c 2.01e-4,-7.5e-5 1.33e-4,-1.33e-4 0.0012,-1.57e-4 z" /></g><rect
           style="fill:#ffffff;fill-opacity:0.180392;stroke-width:0.264583"
           id="rect2564"
           width="0.44573531"
           height="0.45712179"
           x="100.1429"
           y="71.711555" /><path
           id="rect3945"
           style="fill:#ffffff;fill-opacity:1;stroke-width:0.264583"
           d="m 90.827294,71.557362 c 1.8e-5,7.8e-5 6.4e-5,1.56e-4 7.3e-5,2.35e-4 v -2.35e-4 z m 7.3e-5,0.02491 -0.002,7.05e-4 c 3.81e-4,0.0022 8.01e-4,0.0046 9.5e-4,0.0056 4e-4,0.0025 7.79e-4,0.0051 9.51e-4,0.0076 z m 0,0.02976 -0.003,7.9e-5 c 2.14e-4,0.0018 3.87e-4,0.0036 5.85e-4,0.0053 -8.4e-5,-8.26e-4 -1.61e-4,-0.0017 -1.47e-4,-0.0022 4.3e-5,-0.0019 8.17e-4,0.0037 0.0012,0.0056 8.66e-4,0.0046 0.0011,0.006 0.0014,0.0078 z" /><path
           id="rect3963"
           style="fill:#ffffff;fill-opacity:1;stroke-width:0.264583"
           d="m 90.827367,71.557362 c 1e-5,4.1e-5 6.4e-5,1.94e-4 7.3e-5,2.35e-4 1e-5,4.1e-5 6.4e-5,1.94e-4 7.4e-5,2.35e-4 9e-6,4.1e-5 -10e-6,1.94e-4 0,2.35e-4 1.8e-5,8.2e-5 5.4e-5,3.09e-4 7.3e-5,3.92e-4 9e-6,4.1e-5 6.4e-5,1.93e-4 7.3e-5,2.35e-4 1.8e-5,8.4e-5 5.5e-5,3.06e-4 7.3e-5,3.92e-4 1.7e-5,8.5e-5 5.6e-5,2.25e-4 7.3e-5,3.13e-4 v 7.8e-5 c 9e-6,3.8e-5 6.5e-5,1.97e-4 7.3e-5,2.35e-4 9e-6,3.8e-5 -8e-6,1.96e-4 0,2.35e-4 9e-6,3.9e-5 6.5e-5,1.95e-4 7.3e-5,2.35e-4 9e-6,3.9e-5 6.5e-5,1.95e-4 7.4e-5,2.35e-4 8e-6,4e-5 6.4e-5,1.94e-4 7.3e-5,2.35e-4 v 7.8e-5 7.9e-5 l 7.3e-5,7.8e-5 v 7.8e-5 7.9e-5 7.8e-5 l 7.3e-5,7.8e-5 v 7.9e-5 7.8e-5 7.8e-5 7.9e-5 l 7.3e-5,7.8e-5 v 7.8e-5 7.9e-5 7.8e-5 l 7.3e-5,7.8e-5 c 4.3e-5,2.1e-4 1.05e-4,4.99e-4 1.47e-4,7.05e-4 v 7.8e-5 7.9e-5 7.8e-5 7.8e-5 l 7.3e-5,7.9e-5 v 7.8e-5 c 6e-6,3.3e-5 6.6e-5,2.02e-4 7.3e-5,2.35e-4 v 7.8e-5 7.9e-5 c 6e-6,3.2e-5 6.7e-5,2.02e-4 7.3e-5,2.35e-4 v 7.8e-5 c 6e-6,3.3e-5 -6e-6,2.02e-4 0,2.35e-4 l 7.3e-5,7.8e-5 v 7.9e-5 c 6e-6,3.2e-5 -6e-6,2.02e-4 0,2.35e-4 l 7.3e-5,7.8e-5 v 7.8e-5 c 6e-6,3.3e-5 -6e-6,2.02e-4 0,2.35e-4 l 7.3e-5,7.8e-5 v 7.9e-5 c 6e-6,3.3e-5 -5e-6,2.02e-4 0,2.35e-4 v 7.8e-5 l 7.3e-5,7.8e-5 c 6e-6,3.3e-5 -5e-6,2.03e-4 0,2.35e-4 v 7.9e-5 l 7.4e-5,7.8e-5 c 5e-6,3.3e-5 -6e-6,2.02e-4 0,2.35e-4 v 7.8e-5 l 7.3e-5,7.9e-5 c 5e-6,3.2e-5 -6e-6,2.02e-4 0,2.35e-4 v 7.8e-5 l 7.3e-5,7.8e-5 c 5e-6,3.3e-5 -6e-6,2.02e-4 0,2.35e-4 v 7.9e-5 7.8e-5 c 5e-6,3.3e-5 6.8e-5,2.02e-4 7.3e-5,2.35e-4 v 7.8e-5 7.8e-5 c 6e-6,3.3e-5 6.8e-5,2.03e-4 7.3e-5,2.35e-4 v 7.9e-5 c 6e-6,3.3e-5 -5e-6,2.02e-4 0,2.35e-4 l 1.46e-4,8.61e-4 7.4e-5,7.9e-5 c 5e-6,3.2e-5 -6e-6,2.02e-4 0,2.35e-4 v 7.8e-5 l 7.3e-5,7.8e-5 c 5e-6,3.3e-5 -6e-6,2.02e-4 0,2.35e-4 h 1.46e-4 v -0.01206 z" /><text
           xml:space="preserve"
           style="font-stretch:condensed;font-size:0.930041px;font-family:'Noto Sans Hebrew';-inkscape-font-specification:'Noto Sans Hebrew Condensed';fill:#000000;stroke-width:0.0387517"
           x="89.162094"
           y="72.383972"
           id="text455"
           transform="scale(0.96633749,1.0348351)"><tspan
             sodipodi:role="line"
             id="tspan453"
             style="stroke-width:0.0387517"
             x="89.162094"
             y="72.383972" /></text></g><rect
         style="fill:#000000;fill-opacity:1;stroke-width:0.264583"
         id="rect4744"
         width="5.3197012"
         height="2.2921081"
         x="118.87249"
         y="78.850067" /></g></g></svg>
